<?xml version="1.0" encoding="UTF-8" standalone="no"?>
<!-- Created with Inkscape (http://www.inkscape.org/) -->

<svg
   xmlns:dc="http://purl.org/dc/elements/1.1/"
   xmlns:cc="http://creativecommons.org/ns#"
   xmlns:rdf="http://www.w3.org/1999/02/22-rdf-syntax-ns#"
   xmlns:svg="http://www.w3.org/2000/svg"
   xmlns="http://www.w3.org/2000/svg"
   xmlns:sodipodi="http://sodipodi.sourceforge.net/DTD/sodipodi-0.dtd"
   xmlns:inkscape="http://www.inkscape.org/namespaces/inkscape"
   width="744.09448819"
   height="1052.3622047"
   id="svg2"
   version="1.1"
   inkscape:version="0.48.3.1 r9886"
   sodipodi:docname="nade-card.svg">
  <defs
     id="defs4" />
  <sodipodi:namedview
     id="base"
     pagecolor="#ffffff"
     bordercolor="#666666"
     borderopacity="1.0"
     inkscape:pageopacity="0.0"
     inkscape:pageshadow="2"
     inkscape:zoom="0.35"
     inkscape:cx="-162.14286"
     inkscape:cy="514.28571"
     inkscape:document-units="px"
     inkscape:current-layer="layer1"
     showgrid="false"
     inkscape:window-width="1220"
     inkscape:window-height="630"
     inkscape:window-x="0"
     inkscape:window-y="31"
     inkscape:window-maximized="0"
     showguides="true"
     inkscape:guide-bbox="true" />
  <metadata
     id="metadata7">
    <rdf:RDF>
      <cc:Work
         rdf:about="">
        <dc:format>image/svg+xml</dc:format>
        <dc:type
           rdf:resource="http://purl.org/dc/dcmitype/StillImage" />
        <dc:title></dc:title>
      </cc:Work>
    </rdf:RDF>
  </metadata>
  <g
     inkscape:label="Layer 1"
     inkscape:groupmode="layer"
     id="layer1">
    <rect
       style="fill:#02a155;fill-opacity:1;stroke:none"
       id="rect3079"
       width="502.85715"
       height="288.224"
       x="172.97679"
       y="246.23633"
       rx="23.783783"
       ry="26.546946"
       inkscape:export-filename="/home/ben/Desktop/nade.png"
       inkscape:export-xdpi="90"
       inkscape:export-ydpi="90"
       transform="matrix(0.98192676,0.1892613,-0.1892613,0.98192676,0,0)" />
    <path
       inkscape:connector-curvature="0"
       id="path3075"
       d="m 451.82963,599.16915 c -1.97514,-0.49961 -3.70968,-1.08329 -3.85454,-1.29708 -2.20951,-3.26067 -3.18081,-6.45993 -4.06681,-13.39501 -0.674,-5.27579 -0.54882,-6.04815 1.12699,-6.95337 0.93283,-0.50388 1.53204,-0.47564 6.60169,0.31105 3.06663,0.47587 8.20324,1.4477 11.41467,2.15959 5.77717,1.28071 5.84867,1.3063 6.75506,2.41713 0.50385,0.6175 1.00077,1.71941 1.10426,2.4487 0.32706,2.3048 -2.30658,13.83889 -3.57994,15.67846 -0.82153,1.18682 -7.84997,0.56588 -15.50137,-1.3695 z m 24.401,4.34932 c -1.35203,-0.37076 -2.56157,-0.80661 -2.68789,-0.96858 -0.45903,-0.58865 -0.1566,-3.38401 0.66234,-6.12185 0.46084,-1.54068 1.09103,-4.04508 1.40041,-5.56535 0.70962,-3.48669 1.46628,-4.87347 3.29983,-6.04732 1.87397,-1.19973 3.07346,-1.10683 15.06299,1.16654 l 9.10805,1.72701 0.91017,1.16327 c 0.50061,0.6398 0.8672,1.38635 0.81464,1.659 -0.17363,0.90086 -6.07011,9.79168 -7.62162,11.49204 -0.83734,0.91767 -2.57651,2.33781 -3.86482,3.15587 l -2.34238,1.48739 -6.14173,-1.23694 c -3.37795,-0.68041 -7.24795,-1.54032 -8.59999,-1.91108 z M 435.0946,587.11906 c -1.79844,-2.14905 -3.89396,-6.09303 -5.14541,-9.68415 -0.54578,-1.56617 0.21135,-2.639 2.07242,-2.93657 1.90561,-0.30469 2.94477,0.2206 4.37714,2.21258 1.85469,2.57929 2.69588,4.66425 3.09923,7.6818 0.81381,6.08825 -0.76957,7.06859 -4.40338,2.72634 z m 68.98054,14.44153 c -0.5328,-2.3316 3.22258,-7.68627 7.32798,-10.44876 2.41898,-1.6277 5.40157,-1.11743 6.14302,1.05097 0.25221,0.73764 0.13547,1.06613 -0.73059,2.05584 -2.5859,2.95508 -6.68952,6.09234 -9.63733,7.36782 -1.92406,0.83251 -2.90881,0.82429 -3.10308,-0.0259 z m -52.35872,-27.76752 c -7.98216,-1.76591 -8.05913,-1.80146 -8.85423,-4.08847 -0.936,-2.69233 -1.40311,-14.49767 -0.77575,-19.60573 0.32496,-2.64567 0.46555,-3.0463 1.27746,-3.64014 l 0.91235,-0.66728 15.19776,2.83386 15.19775,2.83387 1.19401,1.39751 1.19401,1.39749 -1.72217,9.52658 c -1.91668,10.60228 -2.57519,12.47897 -4.62333,13.17615 -1.24706,0.42448 -7.4409,-0.60699 -18.99783,-3.16376 z m -24.33922,-5.08738 c -0.85878,-0.70401 -2.14662,-5.15566 -3.82982,-13.23848 -1.98548,-9.5344 -1.88857,-11.99125 0.52202,-13.23258 0.81164,-0.41795 1.59259,-0.38585 5.20015,0.21375 4.21161,0.7 4.25288,0.7146 5.23218,1.85334 0.86548,1.00642 1.03394,1.73948 1.36773,5.95238 0.77115,9.73307 0.44864,18.98996 -0.68454,19.64789 -0.69086,0.40113 -7.04712,-0.57279 -7.80772,-1.1963 z m 53.33786,9.97981 c -1.15567,-1.47703 -1.01113,-3.01429 1.19475,-12.70644 1.89109,-8.30909 2.19321,-9.3175 3.05142,-10.18525 1.80479,-1.8248 1.80941,-1.82445 17.35877,1.30059 15.39615,3.09424 15.36891,3.08519 15.61524,5.18737 0.21729,1.85449 -2.28241,8.04982 -6.18715,15.33438 -2.40689,4.49024 -3.11081,5.40187 -4.70693,6.0959 -1.08859,0.47334 -1.51781,0.41317 -13.42215,-1.88133 -11.68766,-2.25273 -12.32769,-2.40869 -12.90395,-3.14522 z m 36.66615,7.49438 c -2.07379,-0.59331 -2.25632,-1.18093 -1.27715,-4.11139 1.25003,-3.74103 6.54443,-14.95441 8.68433,-18.39313 0.6612,-1.06251 0.98791,-1.23038 2.72918,-1.40235 2.44509,-0.24147 6.00414,0.38754 7.28126,1.28688 1.20082,0.84558 1.92524,2.29129 1.70935,3.41133 -0.23356,1.21179 -6.44135,11.17878 -9.40743,15.10421 -3.25353,4.30586 -4.2309,5.02663 -6.45149,4.75779 -0.93862,-0.11359 -2.40924,-0.40764 -3.26803,-0.65342 z m -107.1329,-42.11665 c -0.88476,-0.59035 -1.00061,-1.15848 -1.44367,-7.08028 -0.40809,-5.45434 -0.18883,-11.45785 0.9335,-25.56007 0.83249,-10.46023 0.99881,-11.62002 3.48983,-24.33531 1.43872,-7.34335 3.2053,-15.44303 3.92595,-17.99925 1.25611,-4.45564 6.72568,-18.33609 10.33448,-26.22652 0.93748,-2.04975 1.89324,-4.69868 2.12386,-5.88651 l 0.41934,-2.15972 -1.87929,-1.82727 c -2.59144,-2.51971 -7.19771,-8.23917 -8.66837,-10.76324 -3.45498,-5.92971 -4.33322,-11.36755 -2.98566,-18.48656 0.70026,-3.69912 0.94486,-4.37001 2.64857,-7.26226 3.08861,-5.24342 6.83102,-8.6847 12.93259,-11.89201 6.21069,-3.26467 13.54368,-4.49518 20.72196,-3.47722 4.35676,0.61783 7.35591,1.54323 12.7954,3.94807 3.161,1.3975 3.45501,1.47361 4.7007,1.21697 1.49954,-0.30893 2.86295,-1.70574 5.74083,-5.88149 2.24712,-3.26049 3.67399,-4.61461 5.88397,-5.58398 2.65811,-1.16595 4.83536,-0.88906 18.77835,2.38817 6.53852,1.53684 15.06834,3.51038 18.95512,4.38564 7.88874,1.77645 9.36252,2.34891 11.66035,4.5293 0.87589,0.8311 2.39087,1.83169 3.36665,2.2235 4.59416,1.84476 5.44316,2.37636 5.6829,3.55837 0.12565,0.6195 0.0623,2.52131 -0.14078,4.22623 l -0.36925,3.09986 -4.79198,2.66424 c -7.2218,4.01514 -6.53908,2.96814 -7.87274,12.07341 -1.16074,7.92455 -1.19389,10.28421 -0.18462,13.14152 0.7428,2.10295 1.13085,5.26706 1.12056,9.13692 -0.0149,5.62214 0.87628,8.39113 5.97355,18.55936 3.14498,6.27373 3.31647,7.04771 1.76165,7.95046 -1.28196,0.74431 -0.89299,0.80576 -14.14941,-2.23541 -5.21241,-1.19579 -20.04547,-4.42511 -32.96234,-7.17626 -12.91687,-2.75115 -23.76083,-5.15774 -24.0977,-5.34798 -1.338,-0.75566 0.0587,-2.76044 4.50662,-6.46885 6.23249,-5.1962 11.12744,-10.98351 12.96392,-15.3273 0.47229,-1.11713 1.55584,-3.40087 2.40789,-5.07499 1.59774,-3.13937 1.74223,-3.9255 0.75638,-4.11552 -0.40725,-0.0785 -0.6377,0.22508 -0.79658,1.04938 -0.44697,2.31898 -3.4464,7.96588 -5.48683,10.32983 -5.01582,5.81114 -12.57696,10.42842 -19.60166,11.96995 -4.69648,1.03062 -7.37554,1.01222 -13.80397,-0.0948 -3.24108,-0.5581 -6.0937,-0.95189 -6.33919,-0.87507 -2.96813,0.92895 -10.06763,16.83934 -15.41659,34.54939 -4.08781,13.53454 -7.31324,32.9501 -8.56792,51.57498 -0.72322,10.73577 -1.51357,18.36873 -1.97036,19.02861 -0.36986,0.53434 -1.90816,0.29962 -3.05611,-0.46632 z m 42.82486,-108.11619 c 1.45911,-0.007 4.05127,-0.33886 5.76034,-0.73643 6.53098,-1.51924 11.09301,-4.18827 14.89986,-8.71719 1.84226,-2.19168 2.41572,-3.18462 3.18706,-5.51839 0.51733,-1.5652 0.94576,-3.43191 0.95206,-4.14821 0.02,-2.27456 -0.32481,-2.41754 -10.82151,-4.48678 -10.29556,-2.02964 -10.45403,-2.03197 -12.07642,-0.1836 -1.98413,2.26061 -6.4294,8.53513 -9.38167,13.24229 -3.61439,5.76292 -4.27221,7.96587 -2.6499,8.87437 1.09735,0.61452 7.58739,1.68696 10.13018,1.67394 z m -19.43712,-6.9822 c 1.43276,-0.27154 3.33313,-2.53434 8.31489,-9.90077 7.34967,-10.86777 11.70584,-15.63568 18.6301,-20.39098 5.28173,-3.62729 6.22014,-4.75989 5.61473,-6.77655 -0.77776,-2.59072 -11.28537,-6.33911 -17.92717,-6.39519 -2.95008,-0.0249 -9.01947,1.18254 -11.95737,2.37882 -5.30059,2.15835 -9.62056,5.81974 -12.25551,10.3871 -1.65886,2.87547 -2.96394,10.11006 -2.44288,13.54197 0.69199,4.5576 2.85358,9.71836 5.24951,12.53305 1.50031,1.76257 4.70156,4.60441 5.32123,4.72385 0.25032,0.0482 0.90393,0.003 1.45247,-0.1013 z m 16.39841,113.48567 c -2.3556,-0.51382 -4.64688,-1.08391 -5.09175,-1.26685 -1.01729,-0.41836 -2.01933,-2.53286 -2.3767,-5.01535 -0.36431,-2.53076 0.84403,-12.46827 2.07742,-17.08479 1.65327,-6.18811 0.98214,-6.1244 20.80426,-1.97449 13.59373,2.84595 14.93614,3.17924 15.88752,3.94455 2.01989,1.62484 1.99774,2.36448 -0.4007,13.38554 -1.18403,5.44082 -2.43653,10.40943 -2.78331,11.04136 -1.18444,2.15836 -1.4917,2.1561 -13.33463,-0.0977 -5.77456,-1.09896 -12.42651,-2.41846 -14.78211,-2.93227 z m 37.50983,6.78901 c -0.33817,-0.43218 -0.647,-1.14133 -0.6863,-1.57586 -0.0393,-0.43454 0.93195,-5.72319 2.15835,-11.75257 l 2.2298,-10.96251 1.42852,-0.82902 1.42853,-0.82903 15.68395,3.023 15.68395,3.023 0.91764,1.12302 c 1.46404,1.79172 1.47257,3.22899 0.0542,9.13329 -1.54006,6.41098 -2.95161,10.19469 -4.96779,13.31632 -1.14106,1.76671 -1.7992,2.4399 -2.55207,2.61045 -0.76389,0.17304 -4.68928,-0.47726 -15.88924,-2.63224 -14.3159,-2.75422 -14.89784,-2.89154 -15.48958,-3.64785 z m 40.61785,7.99445 c -0.76751,-0.98091 -0.19598,-4.97224 1.38261,-9.65574 0.78506,-2.32914 1.71631,-5.73384 2.06944,-7.56599 1.16246,-6.03105 2.90703,-7.83195 7.38266,-7.62099 3.17023,0.14944 7.10588,1.2639 8.095,2.29226 0.69253,0.72002 0.68807,0.98693 -0.0827,4.94238 -0.56164,2.88219 -1.51469,6.04124 -3.06752,10.168 -2.47151,6.56825 -3.31973,8.14816 -4.91678,9.15804 -1.03547,0.65478 -1.18663,0.64878 -5.73196,-0.22731 -3.62939,-0.69954 -4.77132,-1.03131 -5.13072,-1.49065 z M 423.90666,537.06441 c -2.2051,-1.20062 -2.73872,-4.13384 -2.24876,-12.36081 0.62217,-10.44701 0.68883,-11.0918 1.31296,-12.70101 0.87643,-2.25976 1.67802,-2.60018 5.41913,-2.30139 2.63679,0.21059 3.55431,0.42367 5.69459,1.32244 3.30589,1.38826 4.28091,2.3147 4.6096,4.37996 0.34509,2.16819 -2.3665,20.96631 -3.19851,22.17382 -0.9329,1.35387 -2.49239,1.48227 -7.02608,0.57846 -2.21985,-0.44253 -4.27317,-0.9337 -4.56293,-1.09147 z m 112.53723,-10.48274 -1.03593,-1.18311 0.79132,-5.36949 c 0.43524,-2.95321 0.96325,-7.40634 1.17339,-9.89583 0.39671,-4.70002 1.16361,-7.67974 2.19133,-8.51404 0.77081,-0.62576 4.58599,-0.33705 8.06453,0.61027 3.264,0.8889 3.73924,1.23724 4.286,3.14154 0.62833,2.18838 0.62053,4.32731 -0.0406,11.13573 -0.7229,7.44466 -1.2331,10.12747 -2.1651,11.38518 -1.28701,1.73658 -2.10698,1.82384 -7.45372,0.79328 -4.74438,-0.91445 -4.78197,-0.92781 -5.81116,-2.10351 z m -41.08747,-7.7459 c -0.66596,-0.35969 -1.45555,-1.08302 -1.75465,-1.6074 -0.51853,-0.9091 -0.42696,-1.48288 1.9694,-12.34223 2.22003,-10.06018 2.59981,-11.43907 3.25556,-11.81953 1.14447,-0.66407 7.79729,0.29142 19.55841,2.809 11.041,2.36342 11.69466,2.59379 13.20679,4.65439 0.69224,0.94333 0.84933,1.65807 0.76577,3.48419 -0.17545,3.83431 -2.12981,17.72532 -2.67341,19.00178 -0.28011,0.65777 -0.97895,1.46864 -1.55296,1.8019 l -1.04363,0.60595 -15.26024,-2.96699 c -11.1704,-2.17178 -15.58474,-3.14231 -16.47104,-3.62102 z m -41.14527,-8.12212 c -3.097,-0.73331 -5.07105,-1.36877 -5.93795,-1.91146 l -1.29863,-0.81294 0.90111,-4.65928 c 1.19171,-6.16699 4.11314,-16.25491 5.08301,-17.55417 0.41946,-0.56191 1.43994,-1.39818 2.26775,-1.85837 l 1.50508,-0.83668 10.22896,2.02942 c 5.62594,1.11625 12.52578,2.57743 15.33298,3.24719 4.91268,1.17208 5.13603,1.25865 5.95826,2.30951 l 0.85424,1.09178 -2.16071,11.21019 c -2.09556,10.87223 -2.18971,11.23335 -3.12245,11.97895 -1.77164,1.41612 -2.05932,1.39643 -13.94377,-0.95425 -6.06543,-1.19973 -13.11577,-2.67562 -15.66741,-3.27981 z m -26.92805,-5.86689 c -1.75209,-0.65435 -1.88722,-0.84498 -2.38426,-3.36333 -0.47242,-2.39362 -0.29298,-3.18662 2.78008,-12.28638 2.27427,-6.73447 3.14122,-8.41968 5.02186,-9.76182 l 1.39818,-0.99781 4.66208,0.89859 c 5.32286,1.02595 6.81145,1.71069 7.42498,3.4154 0.51287,1.42501 0.21452,2.86805 -2.59017,12.52799 -3.68873,12.70475 -3.40326,12.40331 -10.41068,10.99249 -2.48934,-0.50119 -5.14527,-1.14249 -5.90207,-1.42513 z m 114.42104,-8.05606 c -2.86811,-1.23139 -3.32359,-2.70105 -4.05861,-13.09584 -0.19987,-2.82657 -0.68072,-7.15437 -1.06854,-9.61733 -0.38783,-2.46296 -0.69582,-4.52647 -0.68443,-4.58556 0.18736,-0.97209 4.60992,-0.94582 6.35975,0.0378 1.18942,0.66857 4.92637,5.65825 6.08422,8.12384 1.3628,2.90199 2.2379,5.7608 3.09036,10.09562 0.6895,3.50624 0.74421,4.59286 0.34514,6.85248 -0.6417,3.63309 -1.10248,3.90877 -5.46214,3.26766 -1.75117,-0.25748 -3.82389,-0.74213 -4.60575,-1.07864 z m -34.87044,-7.41059 c -5.977,-1.47938 -6.49024,-1.68149 -6.9959,-2.75501 -0.55666,-1.1818 0.0906,-7.63405 1.57104,-15.65974 1.41394,-7.66555 1.89348,-9.09231 3.1763,-9.45082 1.09554,-0.30618 22.25839,3.8902 23.713,4.70206 1.89416,1.05718 2.35954,2.1105 3.15607,7.14357 1.17879,7.4484 1.81279,15.79409 1.37313,18.07514 -0.19402,1.00661 -0.54247,1.47287 -1.52864,2.04546 l -1.27735,0.74163 -9.09355,-1.80223 c -5.00143,-0.99129 -11.34379,-2.35926 -14.09411,-3.03999 z m -37.1031,-7.8412 c -6.14527,-1.33918 -11.50808,-2.64286 -11.91734,-2.897 -0.45944,-0.28531 -0.85821,-1.11121 -1.04231,-2.15864 -0.28228,-1.60605 -0.23007,-1.82703 0.97871,-4.14328 2.27796,-4.36494 4.22512,-7.86478 6.87185,-12.35157 2.16179,-3.66471 2.8366,-4.53217 4.03831,-5.1913 1.94475,-1.06664 3.59835,-0.89751 15.45048,1.58024 10.97326,2.29403 11.06215,2.33306 11.56901,5.07846 0.36238,1.9629 -0.0993,4.56978 -2.406,13.58352 -2.39823,9.37169 -2.50705,9.629 -4.23531,10.01591 -1.58655,0.35518 -1.31489,0.40466 -19.3074,-3.51634 z m -33.24881,-7.71316 c -1.32684,-1.81953 -0.88991,-3.6056 2.00369,-8.19063 4.44552,-7.04414 9.02377,-11.29146 14.52972,-13.47948 3.07759,-1.223 4.99473,-1.45895 6.52255,-0.80274 2.74223,1.17781 2.67071,3.04495 -0.27318,7.13262 -1.18818,1.64979 -3.30584,5.27163 -4.70593,8.04851 -3.23796,6.42213 -5.17564,9.34144 -6.5122,9.81129 -0.78064,0.27443 -2.15691,0.1683 -5.83348,-0.44983 l -4.81182,-0.80898 -0.91935,-1.26076 z"
       style="fill:#196333;fill-opacity:1"
       inkscape:export-filename="/home/ben/Desktop/nade.png"
       inkscape:export-xdpi="90"
       inkscape:export-ydpi="90" />
    <path
       inkscape:connector-curvature="0"
       id="path3073"
       d="m 451.71753,598.81106 c -1.86521,-0.47922 -3.44296,-0.95729 -3.50607,-1.06239 -1.20214,-2.00189 -2.29951,-4.40386 -2.79371,-6.11504 -0.62128,-2.15119 -1.89162,-11.37458 -1.70286,-12.36373 0.0554,-0.28952 0.50522,-0.83145 0.99991,-1.2042 1.2488,-0.941 2.78954,-0.78726 14.03751,1.40071 8.70944,1.69418 9.64903,1.93323 10.40395,2.64785 1.653,1.56458 1.78856,2.85561 0.82235,7.83286 -1.02958,5.30467 -2.46604,10.0235 -3.21276,10.5555 -0.28728,0.20466 -1.16486,0.40604 -1.95017,0.4475 -1.86165,0.0983 -8.80039,-1.03487 -13.09815,-2.13906 z m 24.56599,4.43739 c -1.15387,-0.28901 -2.24613,-0.75613 -2.42721,-1.03806 -0.43261,-0.6735 -0.062,-2.95596 1.46748,-9.03639 1.51324,-6.01606 2.12836,-7.31583 3.92608,-8.29569 1.69919,-0.92617 3.24299,-0.77707 15.22087,1.46998 8.42705,1.58089 8.55115,1.61458 9.31196,2.5276 0.42409,0.50894 0.70699,1.25792 0.62865,1.66438 -0.19617,1.01775 -5.17103,8.64385 -7.0414,10.79394 -0.84087,0.96665 -2.57259,2.4958 -3.84826,3.3981 l -2.31939,1.64056 -6.41039,-1.29953 c -3.52573,-0.7147 -7.35449,-1.53594 -8.50838,-1.82495 z m -40.96951,-16.26054 c -2.40193,-2.84086 -5.70312,-10.03128 -5.12587,-11.16479 0.40575,-0.79675 2.27679,-1.38624 3.59404,-1.13235 1.08259,0.20867 3.44921,3.34098 4.49911,5.95478 0.95485,2.3771 1.39975,6.0437 0.9216,7.59525 -0.54658,1.77364 -1.62325,1.42677 -3.88888,-1.25289 z m 69.16298,14.62144 c -0.40752,-0.52084 0.26845,-2.66707 1.4161,-4.49612 1.21751,-1.94039 4.15261,-4.86515 6.09805,-6.07658 2.07534,-1.29232 5.11637,-0.49624 5.42383,1.41986 0.23171,1.44403 -6.65279,7.34349 -10.41583,8.92552 -1.53013,0.64328 -2.15278,0.6994 -2.52215,0.22732 z m -52.84672,-28.17567 c -3.88947,-0.86132 -7.26154,-1.72698 -7.49349,-1.92371 -0.85172,-0.72238 -1.43327,-3.30988 -1.74017,-7.7428 -0.43351,-6.26129 -0.37504,-11.86821 0.15282,-14.65648 0.67784,-3.58071 -0.45083,-3.57 17.22432,-0.1632 l 14.9215,2.87604 1.07517,1.37412 1.07516,1.37412 -2.07892,10.17601 c -1.81282,8.87377 -2.1861,10.29067 -2.91641,11.07196 -0.46061,0.49278 -1.15989,0.94948 -1.5539,1.01491 -0.97099,0.16121 -10.05094,-1.49316 -18.66608,-3.40097 z m -24.33736,-5.13478 c -1.23875,-1.92855 -4.87287,-18.04545 -4.85138,-21.51533 0.019,-3.06542 0.0926,-3.2643 1.51451,-4.08986 1.26245,-0.73299 1.32714,-0.73205 5.54402,0.0807 4.08108,0.78661 4.29846,0.86568 4.99733,1.81843 0.86353,1.17718 1.2073,4.53064 1.39492,13.60735 0.15572,7.53294 -0.16255,10.92865 -1.06356,11.34777 -0.97128,0.4518 -7.09533,-0.56328 -7.53584,-1.24909 z m 53.50703,9.99771 c -0.90985,-1.25121 -0.73011,-2.71503 1.55876,-12.69431 1.98201,-8.64133 2.13682,-9.13633 3.11181,-9.94915 0.62101,-0.51771 1.59154,-0.88115 2.45863,-0.92067 0.92288,-0.0421 6.26309,0.94255 15.00868,2.76727 15.88097,3.31347 15.23794,3.04065 14.54122,6.16946 -0.54352,2.44052 -2.90955,7.96817 -5.6592,13.22099 -2.28568,4.3665 -3.09835,5.51275 -4.58464,6.46665 -0.90993,0.584 -0.92737,0.58163 -13.36649,-1.81595 -12.25657,-2.36239 -12.46514,-2.4142 -13.06877,-3.24429 z m 36.67241,7.55119 c -1.81061,-0.55822 -1.93087,-1.03876 -0.9696,-3.8734 1.01382,-2.98957 5.7458,-13.30734 7.67169,-16.72764 1.72698,-3.06706 2.28434,-3.24525 7.22843,-2.31096 3.43836,0.64979 3.50998,0.68061 4.23383,1.81669 0.63354,0.99446 0.66397,1.37761 0.21812,2.7456 -0.98579,3.0245 -9.95082,16.46854 -12.172,18.25322 -1.43407,1.15223 -2.72125,1.17222 -6.21047,0.0965 z M 410.25548,543.53705 c -0.53584,-0.5568 -0.79757,-1.91433 -1.08738,-5.6402 -0.46502,-5.97801 -0.26787,-11.69747 0.90444,-26.24053 0.85586,-10.61702 1.02329,-11.78384 3.5155,-24.49935 1.4392,-7.34326 3.22326,-15.51562 3.96445,-18.1608 1.29785,-4.63179 6.65236,-18.25337 10.37291,-26.38808 0.93748,-2.04976 1.8799,-4.62961 2.09427,-5.73301 l 0.38974,-2.00619 -2.19492,-2.20318 c -2.95731,-2.96845 -6.83672,-7.78622 -8.43118,-10.47054 -5.81915,-9.7967 -4.50063,-22.20577 3.24572,-30.54675 3.92633,-4.22774 10.06542,-7.91013 15.72564,-9.43265 8.60018,-2.31334 16.83067,-1.34062 27.07804,3.20022 3.09203,1.37015 3.37235,1.44187 4.54695,1.16351 1.60414,-0.38018 2.62168,-1.38029 5.2789,-5.18849 2.79924,-4.01173 4.24312,-5.42881 6.48937,-6.36892 2.55076,-1.06756 4.5646,-0.79365 18.87292,2.56692 6.53449,1.53474 14.81063,3.44631 18.39144,4.24792 8.56989,1.9185 8.96328,2.06342 11.35495,4.18317 1.50537,1.33421 2.88794,2.16828 5.25412,3.16966 1.76615,0.74743 3.40974,1.61275 3.65239,1.9229 0.58676,0.7499 0.62138,2.99261 0.0904,5.855 l -0.43333,2.33648 -4.37431,2.31298 c -2.40587,1.27213 -4.96348,2.82094 -5.68359,3.44177 l -1.3093,1.1288 -1.09717,7.37594 c -1.15668,7.77587 -1.18292,10.6738 -0.12486,13.78929 0.80069,2.35772 1.09714,4.6698 1.07991,8.42259 -0.0274,5.95271 0.84079,8.8152 5.46243,18.0113 3.60638,7.17597 3.89107,8.31804 2.21566,8.88834 -1.00625,0.34252 -1.93734,0.17631 -12.88973,-2.30089 -6.49282,-1.46855 -22.1009,-4.86386 -34.68462,-7.54513 -14.68517,-3.12904 -22.99568,-5.02354 -23.20391,-5.28965 -0.59993,-0.76676 0.95009,-2.71652 4.57331,-5.75275 6.86351,-5.75154 10.87844,-10.58264 13.33313,-16.04352 0.71826,-1.59794 1.88457,-4.02877 2.59178,-5.40184 1.3189,-2.56069 1.33808,-3.43726 0.0805,-3.67966 -0.5393,-0.10394 -0.80533,0.34938 -1.69264,2.88424 -2.87227,8.20545 -9.87944,15.14026 -19.03259,18.83609 -6.66166,2.68981 -10.42822,3.00709 -18.7987,1.58352 -4.98259,-0.8474 -6.29865,-0.97076 -6.92162,-0.6488 -4.33146,2.23858 -14.11319,27.09553 -18.72392,47.5805 -2.10704,9.36135 -4.33508,25.84351 -5.16466,38.2062 -0.6772,10.0919 -1.58654,18.85815 -1.99689,19.25065 -0.43984,0.42071 -1.96388,-0.0382 -2.71341,-0.81704 z m 43.01835,-107.36963 c 8.12948,-0.2336 15.63169,-3.58399 20.34257,-9.08471 2.63591,-3.07785 3.48721,-4.76058 4.25115,-8.40297 0.78995,-3.76659 0.52607,-4.06723 -4.76049,-5.423 -5.39408,-1.38337 -12.58545,-2.7577 -14.69432,-2.80823 -1.04945,-0.0251 -2.09318,0.20967 -2.66007,0.59845 -2.29257,1.57223 -13.38125,18.13766 -13.88273,20.73943 -0.26376,1.36843 0.0778,2.32519 1.00805,2.82392 1.35443,0.72615 7.46467,1.64135 10.39584,1.55712 z m -19.5078,-6.93866 c 1.57797,-0.37397 3.05047,-2.11369 8.13466,-9.61086 7.51268,-11.07825 12.113,-16.1097 19.12467,-20.91698 3.48081,-2.38648 5.50937,-4.27455 5.70978,-5.31435 0.0627,-0.32529 -0.0538,-1.05776 -0.25897,-1.6277 -0.68761,-1.91055 -6.7354,-4.7413 -12.57878,-5.88768 -11.83735,-2.32232 -24.3405,2.66691 -29.81004,11.89526 -1.32631,2.23778 -1.63535,3.13715 -2.34171,6.81447 -0.66111,3.44054 -0.74663,4.75728 -0.45651,7.00886 0.83011,6.4421 3.78332,12.01491 8.55135,16.13669 2.04171,1.76498 2.33826,1.87846 3.92555,1.50229 z m 15.48936,112.72063 -4.75115,-1.03443 -0.70697,-1.51404 c -0.38884,-0.83271 -0.82112,-2.24215 -0.96064,-3.13206 -0.35842,-2.28625 1.20237,-14.00976 2.39249,-17.97068 1.46709,-4.88276 -0.0693,-4.80402 19.06234,-0.97694 8.64923,1.73013 16.09306,3.35125 16.54187,3.60237 0.44879,0.25112 1.05967,1.00157 1.35747,1.66767 0.49518,1.1076 0.43217,1.76779 -0.73717,7.72358 -0.70312,3.58188 -1.81146,8.58451 -2.46273,11.11702 -1.6867,6.55888 -0.42363,6.23185 -14.04489,3.63639 -6.0167,-1.14645 -13.07746,-2.54995 -15.69062,-3.1189 z m 38.35923,6.88046 c -0.62284,-0.85651 -0.58662,-1.12155 1.69096,-12.37507 l 2.32741,-11.49984 1.4052,-0.71494 1.4052,-0.71493 15.30692,2.95033 15.30691,2.95033 0.96722,1.04235 c 1.53129,1.65022 1.55065,2.8514 0.14085,8.73584 -1.58929,6.63371 -2.76553,10.00078 -4.53624,12.98525 -2.28952,3.85894 -0.66925,3.82037 -18.23811,0.43406 l -15.13988,-2.91813 -0.63646,-0.87525 z m 40.77564,8.15469 c -0.60989,-0.9495 0.0994,-5.27131 1.58555,-9.66116 0.78831,-2.32852 1.71484,-5.6944 2.05895,-7.47971 1.17534,-6.0979 2.74592,-7.60771 7.43699,-7.14924 1.41199,0.138 3.64563,0.5934 4.96369,1.01202 2.02404,0.64283 2.44505,0.90175 2.7094,1.66629 0.54631,1.58 -0.67943,6.43406 -3.60769,14.28684 -2.27051,6.08888 -2.9949,7.67513 -3.82877,8.38411 -0.56567,0.48092 -1.22572,0.94812 -1.46683,1.03821 -0.24109,0.0901 -2.48085,-0.22757 -4.97725,-0.70589 -3.36424,-0.64437 -4.62563,-1.0047 -4.87404,-1.39146 z M 423.20798,536.16088 c -1.62878,-1.64706 -1.74012,-3.40425 -0.97599,-15.40199 0.50278,-7.89429 1.00436,-9.99021 2.55857,-10.69128 1.34219,-0.60543 6.55708,0.0978 9.35232,1.26114 4.85791,2.02182 4.94352,2.41609 3.1552,14.5307 -1.8222,12.3441 -1.63298,11.56504 -2.98355,12.283 -1.08466,0.57661 -1.38166,0.56242 -5.7163,-0.27306 -3.9912,-0.76928 -4.67614,-0.98644 -5.39025,-1.70851 z m 113.24643,-9.96241 c -0.73459,-1.12653 -0.74207,-1.40795 -0.12277,-4.62097 0.3627,-1.88176 0.88752,-6.06506 1.16629,-9.29623 0.55073,-6.38368 1.401,-10.07052 2.46498,-10.68828 0.8676,-0.50373 10.07605,1.18966 10.83001,1.9916 1.40857,1.49816 1.5675,4.19373 0.74368,12.61287 -0.86655,8.85588 -1.32344,10.94943 -2.64327,12.11201 l -1.0696,0.94214 -5.29354,-0.92671 -5.29353,-0.92681 -0.78225,-1.19959 z m -41.30318,-7.76085 c -0.605,-0.37301 -1.23023,-1.02351 -1.38941,-1.44556 -0.20894,-0.55398 0.38906,-3.89118 2.15068,-12.00193 2.17795,-10.02761 2.52132,-11.28175 3.19603,-11.67348 1.07833,-0.6261 10.20834,0.80239 21.70262,3.39562 l 9.04138,2.03984 1.14975,1.46982 c 0.99196,1.26813 1.13445,1.75933 1.03835,3.5796 -0.18793,3.55908 -1.98611,16.67034 -2.54991,18.59219 -0.923,3.14634 0.0246,3.16217 -17.84831,-0.29809 -12.23541,-2.3688 -15.61671,-3.11886 -16.49118,-3.65801 z m -41.27169,-8.11433 c -3.57353,-0.83663 -4.86922,-1.27097 -5.55912,-1.86348 l -0.89956,-0.77257 0.93503,-4.79669 c 1.22335,-6.27249 3.98268,-15.78946 4.94909,-17.06964 0.41576,-0.55075 1.36027,-1.32814 2.09892,-1.72754 l 1.34299,-0.7262 8.32386,1.6606 c 4.5781,0.91336 11.41685,2.35552 15.19718,3.20488 l 6.87336,1.54429 0.87486,1.1181 0.87483,1.11811 -2.282,11.26067 -2.28201,11.26065 -1.40519,0.71492 -1.40519,0.71493 -11.48898,-2.27514 c -6.31894,-1.25124 -13.58578,-2.76601 -16.14854,-3.366 z m -26.79816,-5.82491 c -1.12608,-0.40257 -1.32567,-0.67311 -1.77832,-2.41043 -0.60543,-2.32374 -0.26916,-3.89643 2.77591,-12.98278 2.34477,-6.99671 2.84289,-8.00396 4.61316,-9.32843 l 1.35243,-1.01187 4.8086,0.92683 c 5.44769,1.05002 6.41069,1.46498 6.96336,3.00057 0.511,1.41983 0.13435,3.24382 -2.62361,12.70548 -2.77537,9.52142 -2.95674,10.00245 -4.09472,10.85994 -0.8896,0.67031 -0.97841,0.66556 -5.82587,-0.31259 -2.70738,-0.54628 -5.49332,-1.19732 -6.19094,-1.44672 z M 541.56694,496.461 c -2.44147,-1.05385 -2.93703,-2.7068 -3.55282,-11.85024 -0.17122,-2.54225 -0.65566,-6.94899 -1.07655,-9.79276 -0.88495,-5.97916 -0.85706,-6.03928 2.63697,-5.68596 1.68477,0.17035 2.33942,0.3844 3.06969,1.00382 1.26003,1.06871 4.38745,5.46735 5.3874,7.57725 3.53889,7.46707 4.81122,17.95836 2.39154,19.71985 -0.77358,0.56314 -1.23366,0.57393 -4.23786,0.0993 -1.85354,-0.29279 -3.93182,-0.77484 -4.61837,-1.07126 z m -34.11296,-7.27883 c -2.23954,-0.56222 -4.61555,-1.14635 -5.28002,-1.29807 -2.10502,-0.48068 -2.39225,-1.28449 -2.03858,-5.70538 0.17435,-2.17961 0.93564,-7.3596 1.69172,-11.51109 1.56523,-8.59417 1.75449,-8.97903 4.37844,-8.9043 0.80221,0.0229 6.02458,1.0317 11.60524,2.24194 11.11674,2.41071 11.73964,2.6511 12.51915,4.83131 1.16639,3.26227 2.70732,19.49626 2.13329,22.47447 -0.22465,1.16555 -0.52544,1.64387 -1.29519,2.05966 -0.97875,0.52867 -1.2242,0.49747 -10.32237,-1.31238 -5.12587,-1.01965 -11.15214,-2.3139 -13.39169,-2.87612 z m -37.66393,-7.95172 c -5.93855,-1.30434 -11.1474,-2.5185 -11.57522,-2.69813 -0.51735,-0.21722 -0.90021,-0.86636 -1.14317,-1.93824 l -0.36529,-1.61164 2.82085,-5.34268 c 1.55147,-2.93848 4.0002,-7.31476 5.44163,-9.72505 2.96852,-4.96384 3.84966,-5.66243 6.90814,-5.47699 2.87647,0.17442 21.55712,4.1591 22.4,4.77769 0.40443,0.29696 0.89959,1.26466 1.10038,2.15045 0.32382,1.42872 0.18552,2.38475 -1.22539,8.46976 -2.25989,9.7465 -3.67073,14.43452 -4.48692,14.90935 -0.83909,0.48814 -5.00619,-0.24873 -19.87501,-3.51452 z m -33.20559,-7.65741 c -1.29682,-2.40207 0.7663,-6.8289 6.16926,-13.23729 3.25949,-3.86602 6.56079,-6.39398 10.4225,-7.9809 3.16971,-1.30257 5.12973,-1.39835 6.91281,-0.33778 1.88032,1.11842 1.53349,2.71361 -1.54125,7.08833 -1.07588,1.53075 -3.05263,4.95163 -4.3928,7.60195 -2.61238,5.16633 -4.88456,8.76658 -5.92299,9.38494 -0.49446,0.29444 -1.84441,0.17819 -5.84015,-0.50287 l -5.19703,-0.88583 -0.61035,-1.13055 z"
       style="fill:#196333;fill-opacity:1"
       inkscape:export-filename="/home/ben/Desktop/nade.png"
       inkscape:export-xdpi="90"
       inkscape:export-ydpi="90" />
    <path
       inkscape:connector-curvature="0"
       id="path3071"
       d="m 451.4093,598.47565 -3.01752,-0.71828 -1.16803,-2.20205 c -1.37319,-2.58882 -2.28564,-6.0882 -2.83657,-10.87877 -0.66347,-5.76919 -0.42141,-6.63808 1.93801,-6.95659 1.38188,-0.18655 21.90593,3.79655 22.76435,4.41785 0.36116,0.2614 0.84941,1.08009 1.08501,1.81931 0.38393,1.20463 0.26514,2.06793 -1.14552,8.32401 -0.86562,3.839 -1.74552,7.27951 -1.9553,7.64559 -0.21436,0.37405 -0.92875,0.72727 -1.63098,0.80638 -1.35999,0.15324 -9.21307,-1.11005 -14.03344,-2.25747 z m 24.56441,4.37519 -2.09637,-0.52512 0.0649,-1.57675 c 0.0357,-0.86721 0.5164,-3.01048 1.06817,-4.76282 0.55177,-1.75236 1.2515,-4.43087 1.55495,-5.95229 0.62139,-3.11613 1.83619,-5.03998 3.44598,-5.45778 1.16331,-0.30191 21.50674,3.12394 22.85927,3.84954 1.90356,1.02119 1.6663,2.01792 -1.72946,7.26565 -3.58231,5.536 -5.55357,7.72594 -8.69079,9.65486 l -1.15075,0.70755 -6.61476,-1.33881 c -3.63811,-0.73636 -7.55812,-1.57517 -8.71113,-1.86399 z M 436.07119,587.7131 c -2.26953,-2.20236 -6.05257,-9.87405 -5.71998,-11.59961 0.28345,-1.47059 3.31195,-1.62679 4.91333,-0.2534 1.25861,1.07945 3.35961,5.62916 3.71326,8.04118 0.36817,2.51093 -0.089,5.63045 -0.80453,5.48992 -0.25707,-0.0505 -1.20302,-0.80563 -2.10208,-1.67809 z m 68.79982,12.52314 c 0.41726,-2.16486 2.35424,-4.99585 5.04674,-7.37606 2.27452,-2.0107 3.45879,-2.49006 5.2831,-2.13843 1.1271,0.21724 2.11815,1.30874 1.95533,2.15348 -0.11498,0.59657 -2.56442,3.05221 -5.42392,5.4377 -1.84979,1.54312 -6.03182,3.75754 -6.81225,3.60711 -0.19809,-0.0382 -0.22014,-0.7959 -0.049,-1.6838 z m -53.72086,-27.25549 -6.87469,-1.50561 -0.60693,-1.20147 c -0.54493,-1.07876 -0.79312,-3.0431 -1.21625,-9.62624 -0.40503,-6.30133 0.31245,-13.37699 1.42173,-14.02105 0.39065,-0.22683 4.40457,0.44342 15.74007,2.62828 l 15.21567,2.93274 0.82092,1.04917 0.8209,1.04917 -1.9548,10.13793 c -1.73493,8.9991 -2.05289,10.25191 -2.8287,11.15231 -0.61468,0.71332 -1.21898,1.0112 -2.03628,1.0038 -1.32477,-0.012 -8.46637,-1.40124 -18.5018,-3.59912 z m -23.81321,-5.0369 c -1.01448,-1.5794 -4.38819,-16.35959 -4.57599,-20.04737 -0.1663,-3.2658 0.14296,-4.45379 1.32575,-5.09269 0.9113,-0.49224 1.40074,-0.46481 5.37514,0.30123 3.74285,0.72142 4.45486,0.94797 4.94402,1.57317 1.03683,1.32512 1.72506,15.84673 1.03934,21.92984 -0.31088,2.7578 -0.35208,2.857 -1.20051,2.88998 -1.68627,0.0656 -6.57367,-1.03404 -6.90775,-1.55416 z m 53.34824,9.61973 c -0.32796,-1.02235 -0.093,-2.4252 1.85443,-11.07035 2.42919,-10.78402 2.62949,-11.2536 4.92801,-11.55249 0.63934,-0.0831 6.27773,0.96693 15.18455,2.82796 l 14.16759,2.96017 0.43156,0.88289 c 0.325,0.6649 0.28495,1.33199 -0.16223,2.70173 -1.49674,4.5848 -6.43189,14.97149 -8.19959,17.25723 -1.8015,2.32941 -0.90864,2.35233 -15.12722,-0.38823 l -12.70157,-2.44816 -0.37554,-1.17071 z m 36.22015,7.83391 -1.04344,-0.34548 0.73502,-2.45137 c 1.17488,-3.91832 7.62509,-17.70739 9.04552,-19.33729 0.59387,-0.68143 2.86108,-0.72648 6.02095,-0.11968 3.56329,0.68375 4.50967,1.55924 4.07224,3.76457 -0.59284,2.98862 -10.2123,17.42949 -12.63083,18.96153 -1.03017,0.65255 -1.41306,0.68981 -3.16401,0.30782 -1.09563,-0.23898 -2.46157,-0.59007 -3.03545,-0.7801 z M 410.8776,543.86779 c -1.07864,-0.58768 -1.18442,-1.03407 -1.54036,-6.50037 -0.39349,-6.0428 -0.24287,-9.76072 0.99841,-24.64655 0.5467,-6.55636 1.42065,-13.96715 2.22115,-18.83477 1.32044,-8.02912 5.49041,-26.38232 6.80447,-29.94842 1.59985,-4.34166 7.55615,-18.69598 8.76451,-21.122 1.6999,-3.41283 2.64378,-6.58945 2.26018,-7.60651 -0.1627,-0.43138 -1.35105,-1.85884 -2.6408,-3.17215 -7.02646,-7.15481 -10.4701,-13.30053 -11.2198,-20.02349 -0.25443,-2.28154 -0.135,-3.64558 0.69755,-7.9664 0.92262,-4.78842 1.13146,-5.42325 2.56165,-7.78592 5.02733,-8.30528 14.03062,-13.73134 24.75634,-14.92001 3.34375,-0.37058 3.6196,-0.34626 9.98704,0.88059 5.9251,1.1417 6.88757,1.4133 10.11323,2.8546 4.41192,1.97133 4.88335,2.06353 6.54106,1.27919 1.5604,-0.73831 2.65695,-1.92425 5.22626,-5.65227 3.49319,-5.06851 5.60742,-6.34342 9.83073,-5.92803 1.35869,0.13363 8.57012,1.66722 16.02542,3.40792 7.45529,1.74071 16.42099,3.82883 19.92375,4.64025 l 6.36869,1.47531 2.27939,1.98021 c 1.25366,1.08913 2.93234,2.21665 3.73039,2.50564 2.91408,1.05522 5.13101,2.24512 5.28928,2.83897 0.0891,0.33411 -0.0591,2.20913 -0.32934,4.16675 l -0.49127,3.55928 -4.82277,2.6354 c -6.98489,3.81689 -6.4557,3.02698 -7.68466,11.47105 -1.05027,7.21629 -1.07333,10.78054 -0.0875,13.51969 0.74227,2.06236 0.99133,3.98656 1.07452,8.30113 0.0799,4.14573 0.89324,8.59922 2.04566,11.20165 1.11449,2.51678 3.09609,6.54036 4.41608,8.96669 1.56374,2.87439 2.44681,5.25088 2.27752,6.12921 -0.27882,1.44659 -0.65395,1.40383 -13.96606,-1.59214 -6.89862,-1.55258 -22.66467,-4.98229 -35.03565,-7.62158 -12.37098,-2.6393 -22.56746,-4.89431 -22.65887,-5.01113 -0.37034,-0.47331 1.85055,-2.93148 5.23119,-5.79005 6.92665,-5.85701 10.63715,-10.40546 13.22167,-16.20756 0.80063,-1.79732 1.84407,-3.93952 2.31879,-4.76045 1.21887,-2.10777 1.36237,-3.21485 0.49786,-3.8406 -1.01623,-0.73555 -1.35745,-0.40062 -2.32488,2.28202 -2.08968,5.79458 -4.42555,9.15735 -9.256,13.32521 -3.35531,2.89506 -7.03636,4.99917 -11.25361,6.43262 -6.41881,2.18176 -10.27266,2.32609 -18.57167,0.69555 -4.5796,-0.8997 -5.40851,-0.75808 -7.32259,1.25167 -3.11046,3.26593 -9.75347,19.15875 -14.22115,34.02274 -4.0266,13.39662 -6.9961,31.39814 -8.2124,49.7848 -0.66396,10.03709 -1.64118,19.29161 -2.08155,19.71282 -0.33969,0.3249 -0.49104,0.29096 -1.74186,-0.39052 z m 41.75121,-107.49673 c 8.36024,-0.12324 16.68536,-3.82036 21.42103,-9.51287 2.52815,-3.03896 3.49228,-4.97498 4.13301,-8.29922 0.81679,-4.23769 0.1324,-4.65276 -11.4664,-6.95425 -9.32791,-1.85086 -10.30246,-1.84098 -12.02559,0.12223 -3.65524,4.16453 -12.82412,18.06258 -13.19881,20.00657 -0.23466,1.21742 0.66832,2.86948 1.79889,3.29124 2.1068,0.78593 6.30384,1.39104 9.33787,1.3463 z m -18.34262,-7.20661 c 1.58908,-0.69097 3.22154,-2.67798 8.05149,-9.80028 2.45247,-3.61643 5.65664,-8.03712 7.12037,-9.82376 3.12903,-3.81934 7.99854,-8.3322 11.59918,-10.74966 5.33135,-3.57941 6.56374,-5.25323 5.39315,-7.32499 -1.13852,-2.01504 -7.09951,-4.79755 -12.55022,-5.85829 -4.16429,-0.80977 -7.36279,-0.71817 -12.50884,0.36053 -3.83195,0.80324 -4.66708,1.13783 -8.6373,3.46052 -6.94225,4.06136 -10.03551,8.16716 -11.36404,15.08384 -1.36696,7.11851 0.45337,14.02374 5.26822,19.98097 3.58919,4.44079 5.48617,5.60242 7.62799,4.67112 z m 14.65977,112.37447 -4.37958,-0.9512 -0.70504,-1.5099 c -1.22936,-2.63281 -1.1064,-5.51098 0.63674,-14.90359 1.70855,-9.20567 1.74381,-9.29244 3.90603,-9.59024 0.6539,-0.09 6.56216,1.01619 16.66531,3.1204 l 15.65228,3.25987 0.92092,1.17698 0.92093,1.17701 -2.36821,11.04399 c -2.60338,12.14068 -2.67485,12.31659 -4.98838,12.27498 -1.18763,-0.0213 -17.18444,-3.12694 -26.26101,-5.09823 z m 38.72504,7.06277 c -0.39022,-1.03463 3.84116,-22.75017 4.59376,-23.57557 1.22022,-1.33813 1.08275,-1.35227 17.46653,1.79431 19.68664,3.78085 18.31362,2.70578 16.01212,12.53797 -0.77016,3.29016 -1.78257,7.04897 -2.2498,8.35295 -0.91531,2.55447 -2.79458,5.92129 -3.87456,6.94145 l -0.66855,0.63152 -15.50683,-2.98886 c -14.94819,-2.88118 -15.5164,-3.01433 -15.7727,-3.69378 z m 40.7529,7.24128 c 0.006,-2.01942 0.73556,-5.2071 2.13056,-9.30527 0.71249,-2.09311 1.60218,-5.37827 1.97713,-7.30034 0.77183,-3.95688 1.69314,-5.61071 3.47481,-6.23777 0.9143,-0.3218 1.92182,-0.23524 5.72401,0.49177 4.14067,0.79198 4.65652,0.95771 5.02444,1.61734 0.60604,1.08642 -0.60176,6.73725 -2.57091,12.02834 -0.90361,2.42801 -2.12479,5.71088 -2.71371,7.29527 -0.75688,2.03628 -1.38073,3.12957 -2.12819,3.72964 l -1.05742,0.84893 -4.93216,-0.95065 -4.93214,-0.95065 0.004,-1.26661 z M 423.05695,535.65898 c -1.01651,-1.38571 -1.17893,-3.44267 -0.79401,-10.05529 0.19065,-3.27516 0.41999,-7.23333 0.50965,-8.79594 0.19431,-3.38637 1.00212,-6.0058 2.01334,-6.52842 0.48004,-0.24809 1.89507,-0.226 4.14149,0.0647 5.54974,0.71809 8.88013,2.44406 9.24408,4.79075 0.0961,0.61946 -0.53593,5.91858 -1.40446,11.77582 l -1.57914,10.64951 -0.96415,0.43491 c -0.82261,0.37106 -1.66257,0.30029 -5.72186,-0.48212 -4.52725,-0.8726 -4.79099,-0.96244 -5.44494,-1.85389 z m 113.56615,-9.47483 c -0.54204,-0.74542 -0.54264,-1.29006 -0.004,-4.08221 0.34156,-1.77211 0.85069,-5.85985 1.13141,-9.08385 0.56367,-6.47386 1.43176,-10.67395 2.31171,-11.18481 0.40643,-0.23596 1.93045,-0.0622 5.41141,0.6168 5.7036,1.11258 5.94944,1.29239 6.25507,4.5738 0.22309,2.39543 -0.76974,13.16464 -1.62072,17.57972 -0.49494,2.56786 -0.72569,3.13325 -1.52424,3.73498 -0.93588,0.7052 -0.96929,0.70361 -6.13784,-0.2926 -4.86423,-0.93755 -5.23688,-1.05674 -5.82234,-1.86183 z m -41.38978,-7.89752 c -1.62927,-0.95402 -1.63309,-0.90473 1.02483,-13.14848 2.10064,-9.67656 2.60741,-11.58281 3.14579,-11.83294 0.49042,-0.22785 4.0462,0.36557 15.07738,2.51624 15.64545,3.05031 15.99272,3.15656 16.99053,5.19781 0.52275,1.06947 0.0428,6.62699 -1.3752,15.92556 -0.87412,5.73177 -1.07534,6.54623 -1.77322,7.17751 l -0.78723,0.71207 -15.79663,-3.0662 c -8.68816,-1.68641 -16.11596,-3.25311 -16.50624,-3.48162 z m -41.64331,-8.37731 c -2.55073,-0.60883 -4.90984,-1.28061 -5.24246,-1.49287 -0.54028,-0.34475 -0.49546,-0.94663 0.4203,-5.64379 1.52076,-7.80072 3.97002,-16.0225 5.17635,-17.37664 1.85618,-2.08362 1.51302,-2.11048 18.22213,1.42648 14.62049,3.09486 14.89053,3.16468 15.61827,4.03801 l 0.74056,0.88869 -2.12852,11.04319 c -2.17057,11.26137 -2.37736,11.92109 -3.94368,12.58133 -0.72525,0.30571 -19.88848,-3.32233 -28.86295,-5.4644 z m -26.81692,-5.81166 c -2.00977,-0.91744 -1.86219,-4.8098 0.43315,-11.42424 0.69867,-2.0133 1.72187,-5.01822 2.27378,-6.67761 1.30869,-3.9347 1.95914,-5.11666 3.35521,-6.09684 l 1.15016,-0.80752 5.22231,1.00658 c 5.04577,0.97254 5.24815,1.03966 5.98662,1.98339 0.68238,0.87213 0.71116,1.25248 0.2685,3.54909 -0.48304,2.50608 -4.68133,17.26976 -5.4328,19.10488 -0.78503,1.91712 -1.28521,1.97461 -7.10193,0.81628 -2.89733,-0.57698 -5.66707,-1.23128 -6.155,-1.45401 z m 114.6455,-7.90563 c -2.04161,-0.90234 -2.76026,-3.50918 -3.18092,-11.53813 -0.11311,-2.15932 -0.54972,-6.26052 -0.97022,-9.11379 -0.4205,-2.85329 -0.71598,-5.43977 -0.65662,-5.74775 0.1306,-0.67754 1.22319,-0.751 3.81912,-0.2568 1.87438,0.35619 2.03285,0.46861 4.00022,2.81953 4.45352,5.32175 7.59366,15.36579 6.79624,21.7384 -0.48067,3.84133 -0.60332,3.90946 -5.48961,3.04908 -1.98162,-0.34895 -3.92482,-0.77665 -4.31821,-0.95054 z m -35.55197,-7.67372 c -3.23297,-0.80095 -5.10471,-1.41022 -5.35398,-1.74276 -0.2108,-0.28122 -0.26476,-2.08523 -0.11989,-4.00895 0.31812,-4.2248 2.98178,-19.23679 3.57624,-20.15533 0.26106,-0.40335 0.88852,-0.6545 1.63255,-0.65343 0.66469,9.5e-4 6.05504,1.04766 11.97856,2.32602 13.34062,2.87903 12.30265,2.16117 13.42997,9.2881 1.00011,6.32266 1.56589,15.14071 1.11991,17.45456 -0.5626,2.91886 -0.19028,2.89753 -11.50626,0.65913 -5.3825,-1.06475 -12.02321,-2.49002 -14.7571,-3.16733 z m -36.75831,-7.77772 c -12.37151,-2.69883 -11.85735,-2.48643 -11.91842,-4.92355 -0.0218,-0.8706 0.55433,-2.34566 2.03515,-5.20961 2.78308,-5.38294 8.13608,-14.40937 9.01879,-15.20783 0.39266,-0.35518 1.35671,-0.67596 2.14229,-0.71284 1.54798,-0.0727 18.31611,3.11655 21.95523,4.17575 2.05208,0.59728 2.23706,0.7299 2.67025,1.91426 0.42677,1.16684 0.32381,1.90472 -1.23984,8.88555 -2.41105,10.76394 -3.5488,14.546 -4.4875,14.91723 -0.83768,0.33125 -2.57308,0.001 -20.17594,-3.83901 z m -32.50406,-7.45485 c -0.53666,-0.88675 -0.53496,-1.27937 0.0127,-2.95457 1.3048,-3.99095 6.75781,-11.25471 10.9017,-14.52177 2.24335,-1.76866 5.93911,-3.66055 8.26587,-4.23132 1.10621,-0.27136 3.76009,0.21733 4.64039,0.85449 1.07202,0.77594 0.39903,3.02566 -1.84209,6.15759 -1.05829,1.47896 -3.12766,5.05293 -4.59858,7.94212 -3.08623,6.06199 -4.75616,8.66325 -5.95013,9.26848 -0.71517,0.36254 -1.61215,0.28066 -5.82815,-0.53195 -4.95542,-0.95513 -4.98625,-0.96617 -5.60175,-1.98307 z"
       style="fill:#196333;fill-opacity:1"
       inkscape:export-filename="/home/ben/Desktop/nade.png"
       inkscape:export-xdpi="90"
       inkscape:export-ydpi="90" />
    <path
       inkscape:connector-curvature="0"
       id="path3069"
       d="m 451.92778,598.57475 -3.24769,-0.76205 -1.14946,-1.98958 c -1.51902,-2.62927 -2.37092,-5.93069 -3.0334,-11.75547 -0.49933,-4.39035 -0.48563,-4.85239 0.16398,-5.53183 0.44736,-0.46792 1.20765,-0.74309 2.06127,-0.74603 0.74387,-0.003 5.9669,0.87904 11.60676,1.95913 10.0342,1.92161 10.27002,1.98255 10.98642,2.84239 1.31638,1.57973 1.27792,2.86977 -0.28901,9.69149 -1.76935,7.70301 -1.96653,8.1102 -4.01793,8.29755 -1.69344,0.15465 -7.98654,-0.81022 -13.08094,-2.0056 z m 24.30985,4.26554 -2.20404,-0.62146 -0.003,-1.35236 c -0.002,-0.74379 0.41563,-2.71639 0.9272,-4.38355 0.5116,-1.66715 1.1776,-4.29147 1.48,-5.83181 0.6218,-3.16528 1.34582,-4.54745 2.89843,-5.53002 1.349,-0.8537 3.25515,-0.65702 15.06394,1.55443 7.69907,1.44179 8.59529,1.66871 9.15801,2.31959 0.34309,0.39677 0.55916,1.05679 0.48014,1.46673 -0.1962,1.01794 -5.16274,8.63926 -7.02442,10.7792 -0.83088,0.95507 -2.47032,2.42597 -3.64322,3.26865 l -2.13252,1.53215 -6.39827,-1.29006 c -3.51906,-0.70954 -7.3901,-1.5697 -8.60231,-1.91151 z m -40.71254,-15.99417 c -1.69822,-1.98308 -5.40466,-9.53529 -5.20022,-10.59594 0.13222,-0.686 2.17095,-1.4694 3.27182,-1.25721 1.1369,0.21913 3.12753,2.7273 4.23826,5.34017 0.88674,2.08591 1.43708,5.87427 1.10425,7.60107 -0.33289,1.72714 -1.2549,1.43329 -3.41411,-1.08809 z m 69.33657,13.4386 c 0.48153,-2.49829 4.13953,-7.04487 7.28044,-9.049 1.73159,-1.10487 4.64762,-0.41598 4.90011,1.15763 0.19465,1.2131 -5.26918,6.15267 -8.91372,8.05842 -2.97136,1.55375 -3.59238,1.522 -3.26683,-0.16705 z m -53.35224,-27.23074 c -3.99049,-0.89097 -7.28858,-1.65601 -7.3291,-1.70012 -1.4163,-1.54142 -2.2785,-16.7738 -1.25536,-22.17802 0.3786,-1.99598 0.56479,-2.38233 1.23414,-2.55017 0.50567,-0.12681 6.11279,0.82836 15.62243,2.66129 l 14.83365,2.85911 0.91018,1.16328 0.91019,1.16328 -1.84382,9.5555 c -1.03512,5.36514 -2.10718,10.03829 -2.44423,10.65643 -1.12584,2.06476 -1.68315,2.13557 -7.87201,1.00025 -3.03065,-0.55593 -8.77531,-1.73987 -12.76581,-2.63078 z m -24.96203,-7.78383 c -1.47805,-4.79639 -3.74669,-15.99123 -3.7317,-18.41442 0.0186,-3.01193 0.0969,-3.24855 1.30583,-3.95048 1.01326,-0.58832 1.30842,-0.57731 5.33474,0.19874 5.20238,1.00273 5.28536,1.08461 5.66567,5.59051 0.451,5.34321 0.55769,15.58234 0.18928,18.16381 -0.33848,2.37177 -0.38129,2.45218 -1.32911,2.49818 -0.53866,0.0262 -2.21384,-0.17525 -3.72265,-0.44753 l -2.74327,-0.49504 -0.96879,-3.14375 z m 54.52569,12.86633 c -0.78306,-1.11034 -0.55553,-2.8236 1.65134,-12.43469 2.33171,-10.15479 2.51042,-10.52348 5.15956,-10.64424 0.88618,-0.0404 6.46776,0.991 15.14286,2.79818 11.42284,2.37959 13.80072,2.95769 14.10327,3.42873 0.80578,1.25445 -1.48116,7.50389 -5.68445,15.53366 -2.17771,4.1602 -3.09081,5.48808 -4.36027,6.34092 -0.62569,0.42035 -1.74363,0.25534 -13.10323,-1.93417 -11.42216,-2.20156 -12.4585,-2.44948 -12.90908,-3.08839 z m 36.35108,7.30804 -1.27067,-0.45462 0.52511,-2.0947 c 0.61352,-2.4474 4.44348,-11.07062 7.25838,-16.34239 l 1.96332,-3.67692 1.92741,-0.0654 c 1.06007,-0.036 3.06902,0.20487 4.46435,0.53522 4.69656,1.11193 4.64803,2.52355 -0.36078,10.49306 -4.31432,6.86448 -7.61685,11.19007 -9.16545,12.00468 -1.34183,0.70585 -2.49439,0.61978 -5.34167,-0.3989 z M 410.50333,543.40699 c -0.78958,-0.74658 -1.3973,-8.91152 -1.14901,-15.43771 0.10657,-2.80107 0.59815,-10.10943 1.09241,-16.2408 0.85584,-10.61702 1.02328,-11.78384 3.51547,-24.49935 1.43921,-7.34327 3.22327,-15.51561 3.96446,-18.1608 1.29785,-4.63179 6.65236,-18.25337 10.37291,-26.38809 0.93748,-2.04975 1.88127,-4.63674 2.09733,-5.74886 l 0.39279,-2.02205 -2.35249,-2.39241 c -3.19167,-3.24582 -6.70234,-7.59138 -8.28052,-10.24974 -5.76873,-9.71713 -4.49831,-22.17529 3.10064,-30.40574 3.92166,-4.24758 9.82118,-7.80987 15.43454,-9.3198 8.60934,-2.3158 16.82876,-1.34154 27.1069,3.21306 3.28337,1.45496 3.34013,1.46836 4.63872,1.09483 1.8132,-0.52153 3.02422,-1.68254 5.56722,-5.33734 4.09324,-5.88279 6.06015,-7.12826 10.5145,-6.65787 1.40688,0.14857 7.90422,1.52655 14.43884,3.06057 6.53449,1.53474 14.81063,3.4463 18.39144,4.24793 8.56989,1.91849 8.96328,2.06341 11.35495,4.18315 1.50413,1.33313 2.88809,2.16834 5.24733,3.16677 1.76239,0.74585 3.33595,1.52428 3.49679,1.72985 0.44755,0.57199 0.42229,3.06057 -0.0573,5.64618 l -0.43202,2.32966 -4.35354,2.30028 c -2.39446,1.26516 -4.95268,2.81702 -5.68491,3.44859 l -1.33137,1.14831 -1.09718,7.37593 c -1.15667,7.77587 -1.18292,10.6738 -0.12486,13.7893 0.8007,2.35772 1.09714,4.66979 1.07991,8.42259 -0.0273,5.9527 0.8408,8.8152 5.46243,18.0113 1.7743,3.53049 3.24272,6.89167 3.26314,7.46932 0.0662,1.87109 -0.36932,1.83421 -13.55236,-1.14746 -6.46415,-1.46203 -22.04304,-4.85077 -34.61977,-7.53055 -12.57672,-2.67978 -22.9464,-4.97409 -23.04372,-5.09846 -0.44654,-0.57072 1.48299,-2.84298 4.71181,-5.54869 1.94081,-1.62639 4.55711,-4.00491 5.81401,-5.28562 2.49745,-2.5448 6.31219,-7.80089 7.10467,-9.78906 0.27521,-0.69044 1.38424,-3.04938 2.46454,-5.24213 1.88436,-3.82479 1.93986,-4.00975 1.36594,-4.55243 -0.32904,-0.31112 -0.88946,-0.62179 -1.24537,-0.69039 -0.67304,-0.12973 -0.90468,0.25023 -1.93579,3.17531 -4.03688,11.45205 -16.13389,20.21134 -29.09783,21.06938 -1.47821,0.0978 -4.06757,-0.18437 -8.3063,-0.90526 -7.01336,-1.19277 -7.23969,-1.1584 -9.17702,1.39397 -3.41426,4.49818 -9.35056,18.91238 -13.62167,33.07542 -4.07094,13.49927 -7.19615,32.35068 -8.44215,50.92333 -0.48048,7.16179 -1.35927,16.77416 -1.73819,19.01234 -0.0686,0.40321 -1.72503,-0.0456 -2.35022,-0.63675 z m 42.70769,-106.91368 c 9.19237,-0.26415 17.70012,-4.59052 22.52827,-11.45609 1.30117,-1.85026 2.79253,-6.19254 2.84574,-8.28567 0.0596,-2.34389 -0.87237,-2.81943 -9.24435,-4.71702 -3.78847,-0.85871 -8.07543,-1.67732 -9.52656,-1.81919 -3.68611,-0.36025 -4.5079,0.19253 -8.61601,5.79577 -4.32691,5.90162 -9.38583,14.06098 -9.68708,15.62391 -0.29449,1.52789 0.0552,2.55946 1.06764,3.14976 1.45023,0.84552 7.3989,1.80139 10.63236,1.70849 z m -19.23751,-7.02713 c 1.73858,-0.53357 3.20332,-2.25853 8.30135,-9.77612 7.5127,-11.07825 12.11301,-16.1097 19.12468,-20.91698 3.5531,-2.43605 5.51082,-4.27707 5.72096,-5.3799 0.0689,-0.36135 -0.10766,-1.17768 -0.39222,-1.81408 -0.92897,-2.07756 -6.83936,-4.87059 -12.76809,-6.03371 -11.87874,-2.33051 -24.72292,2.82855 -30.24702,12.14898 -1.32631,2.23778 -1.63538,3.13715 -2.34172,6.81446 -0.66111,3.44054 -0.74663,4.75728 -0.4565,7.00887 0.83562,6.48491 3.94417,12.28454 8.86264,16.53507 2.08563,1.80239 2.48742,1.93773 4.19592,1.41341 z m 15.35558,112.08958 -4.73864,-1.11083 -0.56781,-1.27656 c -0.31229,-0.70211 -0.67977,-1.98954 -0.81665,-2.86097 -0.35419,-2.25527 1.21803,-14.00938 2.40373,-17.97042 l 0.95643,-3.1951 1.42327,-0.33709 c 1.33236,-0.31556 2.40041,-0.13397 16.72178,2.84309 8.4142,1.7491 15.64583,3.37355 16.07031,3.60989 1.61445,0.89886 1.65261,2.10306 0.28675,9.05055 -1.96875,10.01402 -3.47918,15.56049 -4.38013,16.08406 -0.66749,0.38788 -1.89461,0.21497 -11.68313,-1.6462 -6.01552,-1.14378 -13.06969,-2.57941 -15.67591,-3.19042 z m 38.55582,7.10891 c -0.46763,-0.66308 -0.29921,-1.80109 1.80353,-12.18595 l 2.31926,-11.45459 1.20139,-0.58371 1.2014,-0.5837 15.23741,2.93693 c 16.95212,3.26744 16.45118,3.10357 17.10587,5.59505 0.27053,1.02954 0.084,2.29718 -1.02137,6.94031 -1.51996,6.38465 -2.97791,10.49579 -4.65669,13.13093 -1.99436,3.13051 -0.46263,3.14488 -17.63658,-0.16531 -14.21479,-2.73983 -15.06671,-2.93866 -15.55426,-3.62997 z m 40.70855,8.18284 c -0.37083,-0.81538 0.35291,-5.18923 1.33448,-8.06492 0.59526,-1.74396 1.6503,-5.49457 2.34454,-8.33467 1.3636,-5.57859 1.85808,-6.50765 3.90041,-7.32852 1.04801,-0.42121 1.71041,-0.37661 5.63177,0.37921 3.14351,0.6059 4.56255,1.00778 4.84898,1.37326 0.86101,1.09866 -0.39385,6.4208 -3.43752,14.57935 -2.53973,6.80779 -3.00403,7.797 -4.03644,8.6 l -1.1666,0.90736 -4.63616,-0.8936 c -2.5499,-0.49148 -4.70245,-1.03935 -4.78346,-1.21747 z M 423.45998,536.04327 c -1.49017,-1.35548 -1.60549,-3.41009 -0.85382,-15.21221 0.48373,-7.5949 1.02884,-10.02566 2.36709,-10.5549 1.23126,-0.48691 6.62158,0.34419 9.20633,1.41947 2.52853,1.05189 3.687,2.17428 3.93204,3.80956 0.089,0.5939 -0.52242,5.70969 -1.35867,11.36843 l -1.52046,10.28863 -1.01022,0.62927 c -0.9628,0.59973 -1.22272,0.58829 -5.53904,-0.24366 -3.38326,-0.65211 -4.70446,-1.03268 -5.22325,-1.50459 z m 113.20374,-10.00209 c -0.5221,-0.86267 -0.52208,-1.45958 8e-5,-4.13981 0.33508,-1.72259 0.89397,-6.14007 1.24084,-9.81686 0.44779,-4.74641 0.83813,-7.21929 1.346,-8.52715 l 0.7153,-1.84206 2.7624,0.26569 c 1.51933,0.14613 3.94481,0.61363 5.38998,1.03889 2.52495,0.74299 2.64567,0.82329 3.09047,2.05566 0.64912,1.79847 0.63973,4.03809 -0.0464,11.04982 -0.83067,8.48895 -1.32888,10.87531 -2.50927,12.01885 l -0.94558,0.91606 -5.21691,-1.00553 c -5.19024,-1.00039 -5.21994,-1.01121 -5.82695,-2.01356 z m -41.42501,-7.91459 c -0.59144,-0.36486 -1.1411,-0.95118 -1.22149,-1.30295 -0.0804,-0.35175 0.9409,-5.64445 2.26903,-11.76163 2.12847,-9.7998 2.50132,-11.16629 3.13641,-11.4945 0.95785,-0.49505 13.70945,1.62971 23.41569,3.90166 l 6.96574,1.63047 0.98658,1.26091 c 1.19195,1.52337 1.18091,2.27017 -0.18937,12.81306 -1.02475,7.88456 -1.63759,10.57597 -2.55728,11.2312 -0.51134,0.36429 -2.48885,0.0461 -16.15655,-2.59992 -12.22439,-2.36657 -15.80518,-3.15769 -16.64923,-3.67839 z m -41.27779,-8.12816 c -6.62976,-1.55695 -6.36772,-1.20423 -5.22958,-7.03964 1.21975,-6.25384 3.98203,-15.78479 4.94617,-17.0661 0.41457,-0.55097 1.26296,-1.27084 1.88528,-1.59971 1.13101,-0.59769 1.13499,-0.59723 9.45049,1.06167 4.57545,0.91275 11.40652,2.35329 15.18017,3.20112 6.53905,1.46914 6.89542,1.58528 7.5905,2.47363 l 0.72933,0.93212 -2.28032,11.25192 -2.28032,11.25191 -1.20138,0.58371 -1.20139,0.5837 -11.47399,-2.27225 c -6.31072,-1.24966 -13.56247,-2.76268 -16.11501,-3.36212 z m -26.78493,-5.8198 c -1.11191,-0.40221 -1.27399,-0.64199 -1.60694,-2.37739 -0.4326,-2.25474 -0.10626,-3.68188 2.88647,-12.62353 2.28516,-6.82751 2.8294,-7.96431 4.39656,-9.18322 l 1.15562,-0.89882 4.72549,0.91591 c 5.63582,1.09137 6.25084,1.33581 6.7313,2.67077 0.48618,1.35088 0.0835,3.27799 -2.64244,12.64439 -2.61712,8.99262 -2.91035,9.80618 -3.84391,10.66475 -0.65587,0.60318 -0.88354,0.58828 -5.62457,-0.36822 -2.71757,-0.54824 -5.49753,-1.19814 -6.17767,-1.44416 z m 114.45672,-8.04235 c -2.23539,-0.96517 -2.63245,-2.36688 -3.24439,-11.45343 -0.17123,-2.54225 -0.65541,-6.94727 -1.07599,-9.78895 -0.48587,-3.28276 -0.6125,-5.25506 -0.34732,-5.40903 0.22958,-0.13329 1.37833,-0.14518 2.55279,-0.0264 1.67478,0.16935 2.33089,0.38357 3.04166,0.99316 1.26243,1.08269 4.09487,5.07222 5.08584,7.16345 2.44564,5.16102 4.03712,12.51097 3.56565,16.46716 -0.43584,3.65701 -0.66813,3.80294 -4.97009,3.12314 -1.84953,-0.29233 -3.92323,-0.77329 -4.60815,-1.06909 z m -35.38393,-7.56183 c -2.93526,-0.72603 -5.50832,-1.50244 -5.7179,-1.72537 -0.93768,-0.99733 2.31389,-22.79572 3.60823,-24.18926 0.86782,-0.93435 2.56234,-0.72755 13.53974,1.65234 10.85115,2.35252 11.62743,2.63526 12.28489,4.47443 1.16087,3.2473 2.69681,19.48721 2.1241,22.45857 -0.50572,2.62376 -0.44615,2.62115 -11.18625,0.49424 -5.12379,-1.01468 -11.71756,-2.43892 -14.65281,-3.16495 z m -36.73634,-7.74923 c -7.08628,-1.55928 -11.29349,-2.61634 -11.56577,-2.90595 -0.23536,-0.25034 -0.51011,-1.03415 -0.61052,-1.74179 -0.1612,-1.13592 0.14693,-1.90848 2.63068,-6.59585 4.668,-8.80944 7.80407,-13.82495 9.07342,-14.51109 1.09989,-0.59455 1.25299,-0.58089 9.06247,0.80889 4.36902,0.77754 9.83543,1.88514 12.14756,2.46138 l 4.20387,1.04769 0.47516,1.65492 c 0.44891,1.56348 0.38638,2.03953 -1.13196,8.61738 -1.99248,8.63182 -3.6941,14.53106 -4.29186,14.87915 -0.60384,0.35161 -6.4469,-0.73403 -19.99305,-3.71473 z m -32.81746,-7.71703 c -0.46487,-1.0441 -0.44026,-1.46021 0.18788,-3.17771 0.84128,-2.30028 3.81229,-6.80669 6.66978,-10.11665 5.50251,-6.37381 13.59484,-9.90987 16.66097,-7.28027 0.7786,0.66776 0.8206,0.90093 0.40218,2.23289 -0.25696,0.81799 -1.35171,2.73886 -2.43277,4.26862 -1.08105,1.52975 -3.06097,4.95001 -4.3998,7.60059 -3.27228,6.4784 -5.2017,9.25755 -6.46903,9.3181 -0.53093,0.0254 -3.0171,-0.3342 -5.52482,-0.79902 l -4.55949,-0.84511 -0.5349,-1.20142 z"
       style="fill:#196333;fill-opacity:1"
       inkscape:export-filename="/home/ben/Desktop/nade.png"
       inkscape:export-xdpi="90"
       inkscape:export-ydpi="90" />
    <path
       inkscape:connector-curvature="0"
       id="path3067"
       d="m 452.9533,598.78505 c -4.27776,-1.00261 -4.37763,-1.06744 -5.62772,-3.65302 -1.00778,-2.08441 -2.54899,-7.28142 -2.3955,-8.07772 0.0325,-0.16856 -0.15667,-1.98781 -0.42034,-4.04278 -0.47817,-3.7266 -0.4771,-3.73814 0.40614,-4.44023 0.48703,-0.38716 1.48077,-0.70363 2.2083,-0.70326 0.72751,3.7e-4 5.6839,0.83502 11.01417,1.85478 10.52863,2.01437 10.70681,2.07794 11.74292,4.19639 0.38344,0.78398 0.35333,1.87145 -0.13741,4.96263 -0.68998,4.34602 -2.5443,10.69199 -3.27674,11.2138 -1.10359,0.78623 -7.01254,0.21316 -13.51382,-1.31059 z m 23.95501,4.24532 c -1.25666,-0.3078 -2.4234,-0.77539 -2.59279,-1.0391 -0.40993,-0.63818 -0.17552,-2.10417 1.31915,-8.25042 1.52042,-6.25207 2.09244,-7.45778 4.06145,-8.56072 l 1.49956,-0.83997 10.76141,1.95443 10.76141,1.95442 0.76713,1.05364 0.76712,1.05364 -2.71776,4.26439 c -3.43926,5.3965 -5.91147,8.24432 -8.65007,9.96435 l -2.16154,1.35759 -5.76514,-1.17628 c -3.17082,-0.647 -6.79331,-1.42815 -8.04994,-1.73593 z m -41.37415,-16.5661 c -2.30783,-2.88957 -5.38304,-9.44374 -4.88104,-10.40294 0.44678,-0.85372 2.40484,-1.24127 3.41519,-0.67596 2.0537,1.14912 4.27073,5.51934 4.74875,9.3608 0.32825,2.6378 0.0579,4.13368 -0.76016,4.20595 -0.27529,0.0243 -1.41056,-1.09521 -2.52282,-2.48787 z m 69.36886,14.87735 c -1.01627,-1.29885 3.23456,-7.21137 6.89705,-9.59312 1.82305,-1.18556 3.21729,-1.29831 4.32347,-0.34962 1.05651,0.9061 0.85523,1.64289 -0.93875,3.43612 -4.01357,4.01195 -9.51143,7.49116 -10.28177,6.50662 z m -52.64933,-28.12215 c -3.992,-0.88305 -7.44797,-1.76648 -7.6799,-1.96321 -1.02953,-0.87318 -1.41005,-2.92681 -1.83008,-9.87676 -0.54997,-9.10027 -0.1236,-13.5621 1.37941,-14.43476 0.84417,-0.49013 1.37288,-0.41127 15.50457,2.31254 l 14.63058,2.81997 1.07559,1.37468 1.07562,1.37469 -2.01657,9.8496 c -1.75347,8.56462 -2.12582,9.9665 -2.85404,10.74556 -0.46062,0.49276 -1.15952,0.94762 -1.55313,1.01079 -1.0039,0.16108 -9.15758,-1.31638 -17.73205,-3.2131 z m -24.52001,-5.1684 c -0.62403,-0.97153 -2.03495,-6.0487 -3.25915,-11.72808 -1.31599,-6.10512 -1.66648,-8.49701 -1.59096,-10.85758 0.047,-1.47024 0.15698,-1.66141 1.35618,-2.35769 1.28123,-0.74387 1.3759,-0.74403 5.19274,-0.008 3.77107,0.72685 3.91257,0.78254 4.71702,1.85702 0.45612,0.60922 0.78404,1.3425 0.72872,1.6295 -0.0553,0.287 0.0521,2.3524 0.23861,4.58976 0.18656,2.23737 0.35232,5.5152 0.36838,7.28406 0.016,1.76885 0.0625,3.83083 0.10329,4.58216 0.11141,2.05354 -0.54127,5.78256 -1.06538,6.08683 -0.25349,0.14718 -1.80388,0.0909 -3.44531,-0.12499 -2.33479,-0.30713 -3.06273,-0.51456 -3.34418,-0.95265 z m 53.4872,10.06255 c -0.33017,-0.42197 -0.57804,-1.42022 -0.55083,-2.21832 0.0739,-2.16802 3.95856,-18.46789 4.62168,-19.39261 0.31593,-0.44053 1.08968,-0.97573 1.71945,-1.18933 1.06201,-0.36021 2.16222,-0.18399 15.16945,2.4296 16.21449,3.25804 15.45734,2.94938 14.81743,6.04051 -0.20336,0.98268 -0.807,2.74711 -1.3413,3.92097 -0.53429,1.17387 -1.34246,2.97524 -1.79594,4.00306 -1.05193,2.38424 -4.20666,8.35254 -5.00658,9.47173 -0.33662,0.47095 -1.09927,1.19838 -1.69481,1.61651 l -1.08282,0.76023 -12.1277,-2.33755 c -11.47766,-2.21226 -12.1599,-2.37869 -12.72803,-3.1048 z m 36.94155,7.53555 c -1.84929,-0.5833 -2.07032,-0.9682 -1.54268,-2.68648 1.20985,-3.93975 8.37242,-18.96711 9.41895,-19.76132 0.21791,-0.16537 1.43702,-0.29269 2.70916,-0.28292 5.12281,0.0393 7.74064,1.81009 6.71048,4.53914 -1.27102,3.36707 -10.32595,16.64248 -12.38589,18.15888 -1.02851,0.75713 -2.58049,0.76747 -4.91002,0.0327 z m -107.4616,-42.35835 c -1.26674,-1.31845 -1.66851,-10.53654 -0.93208,-21.38573 1.43041,-21.07337 2.63483,-29.67462 6.31565,-45.10306 2.51868,-10.55722 2.65736,-11.00559 5.71509,-18.47742 1.05754,-2.5842 2.42999,-5.9695 3.04988,-7.52284 0.61987,-1.55335 1.86452,-4.35496 2.76588,-6.22579 1.70787,-3.54485 3.133,-8.03289 3.00392,-9.46003 -0.0413,-0.45661 -0.78085,-1.48671 -1.64343,-2.28911 -2.70608,-2.51728 -8.27884,-9.69767 -9.62222,-12.39806 -3.90426,-7.84796 -3.59677,-16.90627 0.8235,-24.26089 2.46139,-4.09535 5.49602,-6.9247 10.68625,-9.96335 5.1513,-3.01585 8.45672,-4.08986 14.37413,-4.67053 2.78076,-0.27286 4.33823,-0.2095 7.80954,0.31768 4.61535,0.70094 7.14118,1.49707 12.90868,4.06874 3.11935,1.39089 3.1479,1.39733 4.58323,1.03374 1.77086,-0.44859 3.06912,-1.72867 5.92324,-5.84033 3.55223,-5.11739 6.03192,-6.6306 10.20142,-6.22535 1.1866,0.11532 7.3932,1.43834 13.79246,2.94005 6.39925,1.50169 14.81607,3.4415 18.70403,4.31068 3.88796,0.86917 7.60857,1.81466 8.26801,2.1011 0.65945,0.28643 2.16066,1.34149 3.33601,2.34457 1.38988,1.18615 2.92642,2.13083 4.39491,2.70201 4.69303,1.82543 4.87234,2.09114 4.36218,6.46379 l -0.34983,2.9984 -4.58464,2.53459 c -2.52155,1.39402 -5.13548,3.04229 -5.80873,3.66285 l -1.22411,1.12824 -1.11002,7.71536 c -1.14876,7.98458 -1.19805,10.80043 -0.23672,13.52204 0.88884,2.51638 1.11058,4.21208 1.09597,8.38135 -0.0215,6.14016 0.91009,9.10981 5.93996,18.93432 1.31974,2.57774 2.54597,5.24109 2.72495,5.91854 0.30664,1.1606 0.27114,1.25621 -0.6146,1.65575 -1.10255,0.49736 -0.86413,0.5387 -13.31942,-2.30974 -5.31981,-1.21661 -20.21951,-4.4567 -33.11043,-7.20021 -13.94298,-2.96742 -23.56069,-5.14494 -23.74079,-5.37512 -0.48114,-0.61493 1.36534,-2.69963 5.44598,-6.14849 6.04826,-5.11188 9.94727,-9.77471 11.98901,-14.33765 0.54524,-1.21851 1.73785,-3.69433 2.65026,-5.50182 0.91241,-1.80752 1.60064,-3.54143 1.5294,-3.85318 -0.0712,-0.31173 -0.48712,-0.77018 -0.92419,-1.01876 -1.09485,-0.62269 -1.66754,-0.10902 -2.38834,2.14221 -3.44141,10.74834 -14.4768,19.64417 -26.66343,21.49386 -3.36501,0.51074 -9.59885,0.24669 -11.04044,-0.46765 -0.40105,-0.19871 -2.01765,-0.50231 -3.59245,-0.67471 -3.20454,-0.35064 -3.98648,-0.0762 -5.60517,1.96696 -3.18988,4.02645 -9.09676,18.40544 -13.56393,33.01835 -3.76982,12.33171 -7.43706,34.53513 -8.54702,51.74798 -0.62107,9.63119 -1.42484,17.52089 -1.84715,18.13095 -0.36983,0.5343 -1.09784,0.33593 -1.92439,-0.52436 z m 42.83416,-106.72398 c 8.839,-0.254 17.22891,-4.44263 21.94973,-10.95831 1.52442,-2.10401 3.28264,-7.08857 3.18531,-9.03039 -0.1135,-2.26451 -0.90352,-2.64958 -9.32323,-4.54431 -9.41877,-2.11956 -12.13765,-2.39915 -13.71507,-1.41039 -1.45395,0.91136 -6.60475,7.86166 -10.72432,14.47099 -3.66986,5.88779 -4.27589,7.82115 -2.89065,9.22194 0.73878,0.74706 1.37778,0.96597 4.67438,1.60137 2.58266,0.4978 4.79778,0.70789 6.84385,0.6491 z m -19.22285,-7.11515 c 1.76994,-0.7696 3.14874,-2.41657 7.89955,-9.43591 7.4619,-11.02501 12.15317,-16.19613 18.84626,-20.77388 5.69386,-3.89434 7.01091,-5.81559 5.53654,-8.07657 -1.98314,-3.04119 -12.69455,-6.57603 -19.16856,-6.32577 -5.07247,0.19609 -10.36458,1.61036 -14.67856,3.92271 -2.93764,1.57463 -7.16577,5.56472 -8.8962,8.39537 -1.34404,2.1986 -1.61111,2.98608 -2.43865,7.1901 -0.78689,3.9975 -0.87372,5.14617 -0.56656,7.49457 0.81015,6.19396 3.71184,11.67778 8.4142,15.90168 2.23676,2.00916 3.4306,2.41271 5.05198,1.7077 z m 15.50373,112.1997 -4.99953,-1.16296 -0.73994,-1.66338 c -1.25733,-2.82647 -1.14949,-6.13824 0.48819,-14.99331 1.64827,-8.91194 1.65164,-8.91831 4.72896,-9.04123 1.83588,-0.0733 29.83233,5.68852 31.12993,6.40678 0.43388,0.24013 1.03252,0.98161 1.33033,1.64772 0.49162,1.09962 0.43226,1.76554 -0.64484,7.23444 -0.65248,3.31284 -1.73071,8.16788 -2.39612,10.78897 -1.70864,6.73048 -0.51433,6.38452 -13.51828,3.9161 -5.70854,-1.08359 -12.62898,-2.49344 -15.3787,-3.13313 z m 38.34888,7.21945 c -0.60977,-0.57656 -0.54246,-1.09403 1.56457,-12.02575 l 2.20178,-11.42328 1.21131,-0.70355 1.21131,-0.70355 14.88153,2.78279 c 16.05868,3.00286 15.97746,2.97906 17.1293,5.0212 0.57127,1.01282 0.53425,1.41634 -0.63992,6.97351 -1.31421,6.22011 -2.72136,10.26686 -4.68445,13.47226 -2.02457,3.30579 -0.62448,3.30228 -17.5295,0.0439 -12.11255,-2.33463 -14.82118,-2.94144 -15.34593,-3.43754 z m 40.58802,7.74369 c -0.50547,-0.78729 0.62162,-6.6427 1.98592,-10.31925 0.50367,-1.35687 1.21207,-4.00439 1.57424,-5.8834 1.16523,-6.04549 2.49195,-7.47439 6.78735,-7.31019 2.87755,0.11 6.94356,1.22076 7.47025,2.04071 0.67585,1.05219 -0.2325,5.67929 -2.10009,10.69806 -0.96807,2.60146 -2.28233,6.13677 -2.92057,7.85627 -1.16239,3.13159 -2.43181,4.86367 -3.68668,5.0304 -0.34206,0.0454 -2.43975,-0.26775 -4.66154,-0.69599 -3.30191,-0.63643 -4.11439,-0.89513 -4.44924,-1.41667 z M 424.16668,536.33608 c -1.84407,-1.07494 -2.21293,-3.61521 -1.716,-11.81765 0.20593,-3.39891 0.43573,-7.2196 0.51066,-8.49043 0.14773,-2.50499 1.007,-4.96295 1.92056,-5.49331 1.03326,-0.59994 5.50396,-0.14302 8.18831,0.83685 5.02739,1.83517 5.38873,2.58161 4.50338,9.30284 -0.34622,2.62839 -1.01307,7.39523 -1.48187,10.59299 l -0.85239,5.81411 -1.11848,0.6494 c -1.06607,0.61898 -1.30766,0.61195 -5.15402,-0.14983 -2.21951,-0.43961 -4.37958,-0.99981 -4.80015,-1.24497 z m 112.82635,-10.19673 c -0.70899,-0.96649 -0.70645,-1.29776 0.0497,-6.50521 0.43819,-3.01777 0.9249,-7.25081 1.08161,-9.40675 0.31569,-4.34305 1.26042,-7.84731 2.23824,-8.30215 0.42125,-0.19595 2.11576,-0.007 5.09651,0.56715 5.14675,0.99201 5.55114,1.25764 5.97148,3.92244 0.35931,2.27787 0.3259,3.31416 -0.32231,9.9986 -0.83335,8.59317 -1.21847,10.34604 -2.5262,11.49806 l -1.06952,0.94215 -4.88624,-0.848 c -4.83103,-0.83838 -4.89468,-0.85941 -5.63323,-1.86633 z m -41.0795,-7.77775 c -2.30523,-1.07619 -2.30505,-1.08203 0.4208,-13.39867 2.23726,-10.10895 2.51593,-11.09709 3.20651,-11.37003 1.15202,-0.45531 11.09374,1.1601 21.14001,3.43501 l 8.73417,1.9778 1.11911,1.43038 c 0.97551,1.24686 1.106,1.72728 1.01705,3.74445 -0.16333,3.70379 -2.08043,17.43529 -2.60671,18.67113 -0.9029,2.12014 -0.62166,2.13776 -17.09077,-1.07053 -8.13168,-1.58414 -15.30477,-3.12289 -15.94017,-3.41954 z m -41.41114,-8.24996 c -3.74505,-0.87568 -5.04985,-1.30848 -5.74506,-1.90557 l -0.89948,-0.77257 0.84082,-4.30793 c 1.17462,-6.01384 3.97784,-15.66139 4.90931,-16.89553 0.42034,-0.5569 1.35619,-1.33249 2.0797,-1.72353 l 1.31548,-0.71098 8.16465,1.60741 c 4.49055,0.88406 11.17392,2.28775 14.85192,3.11932 l 6.68728,1.51194 0.87376,1.11671 0.87375,1.11671 -2.21291,10.90036 -2.21291,10.90037 -1.21105,0.7032 -1.21105,0.7032 -11.12958,-2.11502 c -6.12129,-1.16325 -13.31009,-2.62493 -15.97515,-3.2481 z m -26.92129,-5.8884 c -1.52023,-0.63741 -1.61321,-0.78005 -1.99678,-3.06299 -0.34967,-2.08127 -0.29184,-2.32002 2.7757,-11.46145 2.326,-6.93163 3.05829,-8.43567 4.67047,-9.59252 l 1.31705,-0.94509 4.36315,0.87469 c 5.34818,1.07208 5.98354,1.35114 6.64715,2.91908 0.50513,1.19356 0.46407,1.46248 -1.07589,7.04597 -2.93014,10.62389 -4.41194,14.97905 -5.35115,15.72753 -0.82445,0.65703 -1.01284,0.65152 -5.50158,-0.16082 -2.55635,-0.46258 -5.188,-1.06758 -5.84812,-1.34437 z m 114.42679,-8.03653 c -2.36665,-0.97939 -3.07325,-3.1839 -3.43331,-10.71172 -0.14403,-3.01092 -0.67808,-7.60095 -1.5667,-13.46513 -0.24323,-1.60514 -0.20172,-2.22108 0.16102,-2.38882 0.75215,-0.34785 3.26659,-0.1898 4.34458,0.27308 1.3099,0.56245 4.57944,4.86047 6.07811,7.99003 3.11105,6.49662 4.69978,16.87602 2.88625,18.85625 -0.9772,1.06702 -5.2245,0.78937 -8.46995,-0.55369 z m -34.11693,-7.25825 c -2.23955,-0.5622 -4.61555,-1.14633 -5.28001,-1.29805 -2.10447,-0.48048 -2.39203,-1.28466 -2.04036,-5.70572 0.17339,-2.17979 0.9198,-7.22527 1.65868,-11.21217 1.56579,-8.44858 1.68172,-8.66224 4.6063,-8.4849 2.8476,0.17265 19.97653,4.01642 21.26059,4.7709 0.60823,0.35738 1.32057,1.08905 1.583,1.62594 0.50029,1.02349 1.95914,9.77685 2.06874,12.41292 0.0351,0.84318 0.16051,3.30056 0.27878,5.46086 0.26136,4.77428 0.15176,5.43586 -1.0506,6.34187 l -0.941,0.70906 -9.03612,-1.7992 c -4.96985,-0.98959 -10.86845,-2.25924 -13.10801,-2.82147 z m -34.86258,-7.38467 c -4.60529,-1.02345 -9.74673,-2.14519 -11.42543,-2.49273 -3.41365,-0.70675 -3.91665,-1.0787 -4.14982,-3.06873 -0.15967,-1.36256 1.58753,-4.89859 7.1482,-14.46675 3.31418,-5.70262 4.19954,-6.58452 6.71676,-6.69044 2.17152,-0.0914 21.47325,3.88444 22.50413,4.63545 1.42949,1.04141 1.43555,2.41952 0.0406,9.23874 -1.78482,8.72545 -3.62919,15.13583 -4.50063,15.64254 -0.82019,0.47692 -4.2109,-0.10393 -16.33386,-2.79808 z m -36.01873,-8.13436 c -0.89068,-1.47172 -0.41858,-3.39814 1.64604,-6.71682 4.3291,-6.95863 9.51909,-11.85991 14.81822,-13.99388 2.63146,-1.05968 3.21917,-1.16634 4.77464,-0.86653 0.97559,0.18804 1.95235,0.57009 2.17058,0.84899 0.70522,0.90131 -0.10688,3.15254 -2.19145,6.07487 -1.10732,1.55233 -3.1056,4.98455 -4.44063,7.62715 -2.6103,5.16692 -4.83422,8.69656 -5.86663,9.31112 -0.48811,0.29054 -1.80546,0.18718 -5.46083,-0.4285 l -4.81754,-0.81143 -0.6324,-1.04497 z"
       style="fill:#196333;fill-opacity:1"
       inkscape:export-filename="/home/ben/Desktop/nade.png"
       inkscape:export-xdpi="90"
       inkscape:export-ydpi="90" />
    <path
       inkscape:connector-curvature="0"
       id="path3065"
       d="m 452.01079,598.25308 -3.22747,-0.75789 -1.0234,-1.82962 c -1.40081,-2.50437 -2.24476,-5.86564 -2.88402,-11.48666 -0.6492,-5.70827 -0.45409,-6.20396 2.37451,-6.03246 0.99411,0.0603 6.18527,0.96167 11.53591,2.00308 8.4919,1.65275 9.80189,1.97837 10.30628,2.56172 1.15907,1.34046 1.08672,2.85524 -0.45361,9.49683 -1.83048,7.89269 -1.8769,7.99419 -3.69979,8.09047 -1.67091,0.0882 -8.32576,-0.96466 -12.92841,-2.04547 z m 24.41413,4.34717 -2.08218,-0.522 0.0508,-1.35201 c 0.028,-0.74359 0.45973,-2.66835 0.95926,-4.27728 0.49963,-1.60891 1.15604,-4.18552 1.45871,-5.72582 0.59454,-3.0238 1.34276,-4.53477 2.67707,-5.40336 1.09155,-0.71056 3.57759,-0.42919 14.83541,1.67909 9.08527,1.70144 9.62797,1.8977 9.34221,3.38025 -0.19848,1.02976 -5.16003,8.64526 -7.02925,10.78927 -0.83243,0.95477 -2.3827,2.36681 -3.44506,3.13787 l -1.93157,1.40191 -6.37663,-1.29302 c -3.50712,-0.71111 -7.3136,-1.52785 -8.45879,-1.81495 z m -40.66875,-15.87382 c -1.56426,-1.79745 -5.25248,-9.39057 -5.05612,-10.4093 0.12431,-0.64497 1.74589,-1.20802 2.86042,-0.9932 1.08457,0.20904 2.83339,2.42728 3.90964,4.95903 1.3638,3.20821 1.62262,8.61126 0.4012,8.37583 -0.28645,-0.0552 -1.23826,-0.92476 -2.11514,-1.93236 z m 69.51107,13.46745 c 0.34746,-1.80266 2.46879,-4.77387 4.98875,-6.98743 2.48867,-2.18607 3.76751,-2.63495 5.44943,-1.91275 1.84705,0.79311 1.11708,2.02063 -3.70871,6.23665 -1.75572,1.53387 -5.9243,3.93591 -6.60336,3.80502 -0.18355,-0.0354 -0.2403,-0.54904 -0.12611,-1.14149 z m -53.57479,-27.42411 c -3.92436,-0.86804 -7.19741,-1.66629 -7.27342,-1.77387 -1.35952,-1.92414 -2.11379,-16.49765 -1.12439,-21.72459 0.34607,-1.82718 0.57658,-2.347 1.07086,-2.41267 0.34649,-0.046 7.275,1.19709 15.39666,2.7625 l 14.76667,2.8462 0.76429,0.97681 0.7643,0.97682 -1.84184,9.54525 c -1.84495,9.56142 -2.43862,11.48523 -3.72855,12.08525 -0.79515,0.36988 -7.87404,-0.86616 -18.79446,-3.28168 z m -25.02353,-8.32111 c -1.5986,-5.55941 -3.49395,-15.10765 -3.47898,-17.52618 0.0182,-2.93812 0.0994,-3.21842 1.10143,-3.8002 0.77155,-0.44798 1.3729,-0.41128 5.13128,0.31313 3.47251,0.66931 4.33147,0.93609 4.65969,1.44703 0.81195,1.26409 1.47163,17.1146 0.90787,21.81324 l -0.28351,2.3627 -1.15425,-0.0208 c -0.63484,-0.0114 -2.20608,-0.22348 -3.49165,-0.47127 l -2.33736,-0.45051 -1.05452,-3.66719 z m 54.61382,13.55571 c -0.60082,-0.93539 -0.27623,-3.11932 1.81713,-12.22589 2.29498,-9.98366 2.43557,-10.28953 4.77885,-10.39724 1.89713,-0.0872 28.78558,5.53483 29.03305,6.07048 0.79208,1.71426 -6.12445,17.42796 -9.06172,20.58736 l -1.06576,1.14636 -12.58816,-2.33739 c -10.02835,-1.86214 -12.65437,-2.43999 -12.91338,-2.8437 z m 36.27214,7.1805 -1.20634,-0.36988 0.62619,-1.96899 c 0.84357,-2.65248 4.94163,-11.73592 7.21877,-16.00056 1.39864,-2.61938 2.0563,-3.51225 2.71578,-3.68712 0.48388,-0.12829 2.40015,0.0581 4.31643,0.41977 4.21632,0.79587 4.67625,1.24433 3.87,3.77367 -1.13564,3.5627 -10.51533,17.2854 -12.50123,18.28962 -1.08669,0.5495 -2.04026,0.46312 -5.0396,-0.45651 z M 410.74283,543.25378 c -0.65487,-0.54567 -1.239,-9.3064 -1.01432,-15.21239 0.10655,-2.80107 0.59814,-10.10943 1.0924,-16.2408 0.85586,-10.61702 1.02328,-11.78384 3.51549,-24.49934 1.4392,-7.34326 3.22327,-15.51562 3.96444,-18.16081 1.29816,-4.6328 6.60451,-18.13043 10.41366,-26.48887 1.09063,-2.39317 1.84705,-4.58355 2.01827,-5.84437 l 0.27385,-2.01661 -2.74883,-2.853 c -8.83955,-9.17456 -11.66323,-15.29279 -11.24439,-24.3639 0.4358,-9.43878 6.45752,-17.93571 16.00111,-22.57828 9.81411,-4.77415 20.27297,-4.43111 32.69256,1.07228 2.97658,1.31899 3.40471,1.43395 4.42784,1.18907 2.29119,-0.5484 3.48931,-1.66382 6.53687,-6.08576 3.64165,-5.28395 5.54834,-6.44018 9.87114,-5.986 1.35986,0.14289 7.81855,1.51717 14.35283,3.05298 6.53419,1.53624 14.8101,3.44904 18.39091,4.25066 8.56989,1.9185 8.96328,2.06342 11.35496,4.18316 1.50125,1.33056 2.8884,2.16847 5.23144,3.16003 1.75367,0.74212 3.25727,1.43724 3.34134,1.54468 0.31854,0.40712 0.21841,3.1987 -0.19462,5.4259 l -0.42938,2.31542 -4.54667,2.41867 c -2.50066,1.33027 -5.07063,2.94932 -5.71103,3.5979 l -1.16436,1.17923 -1.07421,7.23628 c -1.1326,7.62951 -1.15426,10.5576 -0.10107,13.65878 0.8007,2.35772 1.09714,4.66979 1.07991,8.42258 -0.0273,5.95272 0.84078,8.8152 5.46243,18.0113 1.7743,3.5305 3.24295,6.89846 3.26368,7.48436 0.0332,0.94027 -0.0803,1.0682 -0.96752,1.09017 -0.55284,0.0137 -6.07286,-1.1253 -12.26668,-2.53118 -6.19385,-1.40583 -21.54934,-4.74722 -34.12335,-7.42531 -12.57398,-2.67808 -22.93495,-4.96273 -23.02436,-5.07698 -0.39631,-0.50653 1.42237,-2.5683 4.65498,-5.27718 6.83286,-5.72587 10.85279,-10.56623 13.30382,-16.01899 0.71828,-1.59794 1.8792,-4.0183 2.57982,-5.37858 1.42327,-2.76335 1.3871,-3.62834 -0.17984,-4.30116 -1.28763,-0.55291 -1.66363,-0.20237 -2.62177,2.44423 -1.41037,3.8958 -3.11808,7.03594 -5.07024,9.32315 -6.12069,7.17119 -14.84771,11.645 -23.8823,12.24297 -1.47847,0.0979 -4.06804,-0.18445 -8.31038,-0.90595 -6.06524,-1.03153 -6.18175,-1.03755 -7.36896,-0.38143 -1.61564,0.89291 -2.91359,2.67636 -5.16284,7.09398 -5.24494,10.30132 -10.72086,26.25789 -13.97701,40.72843 -2.08632,9.27173 -4.36688,26.10041 -5.17723,38.20378 -0.32558,4.8628 -0.73182,10.10713 -0.90274,11.65409 -0.17094,1.54694 -0.41109,3.81981 -0.53368,5.0508 -0.19977,2.00585 -0.29314,2.22409 -0.89942,2.1026 -0.37205,-0.0748 -0.87904,-0.30433 -1.12659,-0.5106 z m 42.40539,-106.43464 c 9.23334,-0.26532 18.09441,-4.78351 22.96525,-11.70981 1.30404,-1.85434 2.79072,-6.18872 2.85058,-8.31072 0.0378,-1.34217 -0.11697,-1.62449 -1.42106,-2.59156 -1.41673,-1.05061 -1.74673,-1.14144 -10.31896,-2.8401 -10.1392,-2.00917 -10.80709,-2.01742 -12.64312,-0.15737 -3.23833,3.28081 -13.0028,18.06401 -13.44424,20.35429 -0.5182,2.68852 0.70982,3.72532 5.53726,4.675 2.22822,0.43864 4.458,0.63821 6.47429,0.58027 z m -19.16714,-7.04864 c 1.93949,-0.5951 3.37832,-2.2544 8.60976,-9.92916 7.66782,-11.24903 12.63924,-16.6657 19.44099,-21.18222 6.58565,-4.37303 7.06639,-7.00343 1.81064,-9.90647 -3.25084,-1.79558 -5.9941,-2.78263 -9.81936,-3.53309 -4.03302,-0.7912 -7.63015,-0.76175 -11.93569,0.0977 -4.1639,0.83122 -7.0504,1.98306 -10.71272,4.27482 -3.60357,2.25501 -6.07879,4.72852 -8.03561,8.03014 -1.32631,2.23777 -1.63536,3.13715 -2.34171,6.81446 -0.66111,3.44054 -0.74664,4.75728 -0.45651,7.00887 0.84057,6.52328 4.11023,12.55846 9.17396,16.93338 2.1003,1.81461 2.48188,1.93907 4.26636,1.39155 z m 15.49818,111.53354 -4.65773,-1.003 -0.49416,-1.18385 c -0.27179,-0.65112 -0.60474,-1.88949 -0.73989,-2.75197 -0.34155,-2.17951 1.04017,-12.92675 2.23434,-17.37917 l 0.99016,-3.69184 1.45477,-0.2326 c 1.25586,-0.20079 3.47049,0.18671 16.19782,2.83422 8.10868,1.68675 15.19406,3.2343 15.74528,3.43899 0.65071,0.24165 1.14751,0.77556 1.41639,1.52219 0.36876,1.02398 0.17066,2.2698 -1.80742,11.36709 -1.22186,5.6194 -2.4453,10.62936 -2.71874,11.13323 -0.41268,0.76045 -0.75453,0.90663 -2.01139,0.86014 -1.45924,-0.054 -15.98485,-2.84086 -25.60942,-4.91347 z m 38.61373,7.2225 c -0.25181,-0.392 0.28572,-3.65972 1.9715,-11.98517 l 2.31765,-11.44624 1.00337,-0.45232 c 0.95077,-0.42861 1.79681,-0.2994 16.14096,2.46536 10.12794,1.95211 15.36513,3.0824 15.82516,3.41537 1.46413,1.05974 1.46531,2.60598 0.007,8.73334 -0.7438,3.12439 -1.83998,6.95539 -2.43595,8.51335 -1.10285,2.88298 -2.933,6.08694 -3.8502,6.74039 -0.7622,0.54301 -30.47297,-5.19607 -30.97912,-5.9841 z m 40.87727,6.10175 c 0.0965,-1.41643 0.70601,-3.90759 1.6835,-6.88115 0.8427,-2.56353 1.83985,-6.18751 2.21586,-8.0533 0.80895,-4.01361 1.62533,-5.58669 3.24024,-6.24314 1.04683,-0.42551 1.69902,-0.38432 5.49351,0.34705 5.35394,1.03195 5.36616,1.04601 4.55513,5.25381 -0.86182,4.47128 -5.90818,17.75518 -7.13275,18.77609 l -0.96273,0.80259 -4.62205,-0.89087 -4.62202,-0.89087 0.15131,-2.22021 z m -105.3186,-18.81062 c -1.31204,-1.2753 -1.40643,-3.3724 -0.67132,-14.9145 0.46614,-7.31898 1.03825,-10.0446 2.18358,-10.40305 1.18836,-0.37195 6.616,0.54918 8.94476,1.51801 2.57903,1.07293 3.39163,1.83594 3.62716,3.4058 0.0899,0.59892 -0.52043,5.71614 -1.3562,11.37159 -1.43254,9.6936 -1.56458,10.31183 -2.30496,10.79241 -0.69746,0.45272 -1.29437,0.41167 -5.33314,-0.36678 -3.05779,-0.58938 -4.7254,-1.0492 -5.08988,-1.40348 z m 113.2301,-9.93306 c -0.32331,-0.61061 -0.28686,-1.6301 0.13506,-3.77585 0.31772,-1.6167 0.88418,-6.09006 1.25843,-9.94086 0.47911,-4.92971 0.876,-7.45317 1.34126,-8.52806 l 0.6608,-1.5266 2.10482,0.1538 c 1.15766,0.0846 3.46665,0.50885 5.13111,0.94276 2.98033,0.77701 3.03204,0.80708 3.40645,1.98185 0.56114,1.76067 0.5332,4.06898 -0.13146,10.86156 -0.76973,7.86634 -1.32611,10.73681 -2.29177,11.8241 l -0.75619,0.85128 -5.20774,-1.00376 c -4.95736,-0.95551 -5.22907,-1.04393 -5.65067,-1.84022 z m -41.36483,-7.93589 c -0.47461,-0.27483 -0.96284,-0.70147 -1.08494,-0.94808 -0.12212,-0.24661 0.8598,-5.48647 2.18202,-11.64414 1.93485,-9.01066 2.52606,-11.27116 3.02918,-11.58218 0.89729,-0.55464 28.33728,4.76395 29.85289,5.78628 1.82911,1.23379 2.0349,2.17254 1.53969,7.02337 -0.79086,7.74681 -2.18767,16.21574 -2.82263,17.11361 l -0.57837,0.81788 -15.62744,-3.0336 c -9.3409,-1.81324 -15.97459,-3.23455 -16.49039,-3.53322 z M 454.027,509.6556 c -2.55074,-0.60882 -4.90985,-1.28061 -5.24246,-1.49286 -0.53658,-0.3424 -0.49989,-0.92365 0.32546,-5.15515 1.21112,-6.20955 3.97888,-15.76173 4.93825,-17.04336 1.59547,-2.13139 1.63486,-2.13241 10.90995,-0.28209 4.57118,0.91193 11.39087,2.34991 15.15486,3.19555 6.02012,1.35251 6.91438,1.62798 7.43191,2.28939 0.55772,0.71281 0.46993,1.33596 -1.68918,11.98963 l -2.27747,11.23774 -1.00337,0.45231 c -0.94385,0.42548 -1.68297,0.31773 -12.45679,-1.81594 -6.29941,-1.24748 -13.54041,-2.76639 -16.09114,-3.37522 z m -26.62563,-5.76392 c -0.87776,-0.34922 -1.1406,-0.74366 -1.45868,-2.18891 -0.45239,-2.05541 -0.13549,-3.4223 2.88701,-12.45285 2.22347,-6.64327 2.82457,-7.93769 4.19819,-9.04047 l 0.9689,-0.77785 4.69954,0.9109 c 2.58468,0.50124 5.0418,1.06324 5.46004,1.25001 1.0254,0.45789 1.35673,1.75879 0.9684,3.80222 -0.58214,3.06256 -5.23487,18.63353 -5.89166,19.71664 l -0.64221,1.05902 -5.05947,-0.9261 c -2.78272,-0.50936 -5.5413,-1.11775 -6.13015,-1.35211 z m 114.3031,-8.0777 c -0.68,-0.29383 -1.40806,-0.84258 -1.61791,-1.21944 -0.50282,-0.90301 -0.94206,-4.16705 -1.32409,-9.83947 -0.1712,-2.54225 -0.65481,-6.94329 -1.07466,-9.78008 -0.41985,-2.8368 -0.68101,-5.20563 -0.58034,-5.26408 0.38055,-0.22094 3.74131,0.16209 4.57933,0.52193 1.08532,0.46602 4.36755,4.74051 5.53866,7.21304 2.50592,5.29076 4.09174,12.59034 3.59798,16.56176 -0.1805,1.45216 -0.52521,2.81049 -0.76587,3.01853 -0.53097,0.45896 -6.4854,-0.40513 -8.3531,-1.21219 z m -35.24062,-7.52904 c -2.8515,-0.7061 -5.35554,-1.38012 -5.56453,-1.49782 -0.21452,-0.12079 -0.21928,-2.07347 -0.0109,-4.48403 0.41898,-4.84763 2.79192,-18.30013 3.40089,-19.28016 0.27522,-0.44292 0.85531,-0.63469 1.83662,-0.60718 2.09293,0.0587 21.00629,4.19336 22.16229,4.84493 0.53854,0.30355 1.13144,0.97803 1.31757,1.49888 0.61095,1.70955 1.74548,10.24084 2.07676,15.61656 0.33921,5.50413 0.10489,8.08193 -0.78142,8.59653 -0.61323,0.35605 -15.94827,-2.58562 -24.43724,-4.68764 z m -34.11836,-7.22515 c -4.60675,-1.01578 -9.68583,-2.11898 -11.28684,-2.45155 l -2.9109,-0.60475 -0.3651,-1.33765 c -0.3539,-1.29673 -0.29249,-1.47883 2.00678,-5.94969 3.71885,-7.23126 8.31161,-14.79566 9.34936,-15.39871 0.87589,-0.509 1.34242,-0.45605 10.18716,1.15642 5.0981,0.92937 10.5099,2.04854 12.02623,2.48697 2.66725,0.77118 2.77214,0.83854 3.22215,2.06957 0.42483,1.16215 0.32554,1.89015 -1.14505,8.39692 -2.31864,10.25899 -3.57681,14.40639 -4.47854,14.76299 -0.78318,0.30972 -2.29733,0.0243 -16.60523,-3.13061 z m -35.37908,-8.06816 c -0.59008,-1.39934 0.44256,-4.12292 2.98639,-7.87645 4.36502,-6.44081 8.4722,-10.2058 13.29027,-12.18299 2.95675,-1.21335 5.27638,-1.30878 6.70356,-0.27579 0.66323,0.48004 0.70143,0.74418 0.29485,2.03839 -0.25692,0.81778 -1.35299,2.74054 -2.43576,4.27279 -1.08274,1.53225 -2.94948,4.74621 -4.14828,7.14216 -1.19882,2.39592 -2.94037,5.52381 -3.87013,6.95084 -1.98792,3.05109 -1.73461,2.99722 -8.21866,1.74746 -4.16054,-0.80193 -4.17707,-0.80919 -4.60224,-1.81641 z"
       style="fill:#196333;fill-opacity:1"
       inkscape:export-filename="/home/ben/Desktop/nade.png"
       inkscape:export-xdpi="90"
       inkscape:export-ydpi="90" />
    <path
       inkscape:connector-curvature="0"
       id="path3063"
       d="m 451.89028,597.82696 c -2.92681,-0.77064 -3.06117,-0.84594 -3.79886,-2.12909 -1.27789,-2.22283 -2.36029,-6.39263 -2.91234,-11.2194 -0.62032,-5.42365 -0.4092,-6.17285 1.7005,-6.03486 1.79701,0.11754 9.51915,1.47668 16.52216,2.90801 l 5.32612,1.0885 0.56757,1.20772 c 0.54073,1.15064 0.49446,1.53707 -0.97913,8.17543 -0.85069,3.83223 -1.71572,7.2622 -1.92228,7.62215 -0.21732,0.37864 -0.81061,0.65488 -1.40785,0.65546 -1.68081,0.002 -9.82227,-1.41203 -13.09588,-2.274 z m 24.5883,4.44716 c -1.5994,-0.42494 -1.71763,-0.52972 -1.73959,-1.54168 -0.0129,-0.59716 0.42277,-2.52048 0.96833,-4.27403 0.54554,-1.75354 1.24442,-4.47514 1.55309,-6.04798 0.58032,-2.9564 1.3983,-4.49606 2.71397,-5.10755 0.58902,-0.27374 2.88347,0.0256 11.13173,1.45208 5.71438,0.9883 10.79325,1.96867 11.28644,2.17846 1.26756,0.53959 1.06204,1.84275 -0.72343,4.58715 -0.80588,1.2387 -1.90266,2.93243 -2.4373,3.76385 -1.51957,2.36312 -4.31554,5.42567 -6.22286,6.81616 l -1.74007,1.2687 -6.53716,-1.31958 c -3.59542,-0.72579 -7.30934,-1.52478 -8.25316,-1.77553 z m -40.48965,-15.66751 c -1.59761,-1.79817 -5.18033,-9.4823 -4.81506,-10.32719 0.35767,-0.82733 2.28388,-0.87579 3.33632,-0.0839 1.28565,0.96731 3.27069,5.16246 3.66095,7.73702 0.3492,2.30372 0.14449,4.47399 -0.41191,4.36674 -0.17683,-0.0341 -0.97346,-0.79577 -1.7703,-1.69264 z m 69.72087,13.3047 c 0.12196,-0.63272 0.72321,-1.88937 1.33611,-2.79255 1.35139,-1.99146 5.39289,-5.72749 6.33053,-5.85206 1.15659,-0.15365 2.37879,0.21439 2.77852,0.83674 0.31721,0.49385 0.18849,0.80111 -0.75325,1.79799 -3.08307,3.26366 -6.38033,5.79039 -8.76021,6.71309 l -1.15343,0.4472 0.22173,-1.15041 z m -54.05374,-27.50894 -6.86855,-1.50441 -0.52351,-1.23843 c -1.11311,-2.63315 -1.47264,-16.4441 -0.52842,-20.29838 l 0.54318,-2.21744 15.07306,2.81696 c 14.66964,2.74155 15.08982,2.83842 15.69936,3.61738 0.59966,0.7664 0.54609,1.2165 -1.25986,10.58611 -2.18054,11.31311 -2.37932,11.79408 -4.82637,11.67767 -1.55123,-0.0738 -5.77105,-0.9123 -17.30895,-3.43945 z m -24.60383,-7.71085 c -2.03739,-6.64377 -3.71545,-15.61227 -3.50339,-18.72402 0.21314,-3.12728 0.4903,-3.23178 5.83773,-2.20109 2.93918,0.56651 4.31869,0.96135 4.51924,1.29349 0.15877,0.26294 0.425,2.17718 0.59164,4.25386 0.74119,9.23659 0.46669,19.06039 -0.54226,19.40666 -0.2548,0.0874 -1.69535,-0.0762 -3.20125,-0.36357 l -2.73794,-0.52263 -0.96376,-3.14278 z m 54.28779,12.51027 c -0.14333,-0.63724 0.51994,-4.19637 2.00753,-10.77209 2.16135,-9.55429 2.24801,-9.83573 3.19825,-10.38569 l 0.97669,-0.56529 14.464,2.9111 c 7.95522,1.60105 14.53478,2.99696 14.62128,3.10189 0.95905,1.16358 -5.96766,16.92319 -8.91306,20.27898 l -1.06695,1.21562 -12.53682,-2.41641 -12.53682,-2.4164 -0.21408,-0.9517 z m 36.27705,7.66233 c -0.78911,-0.29311 -0.79918,-0.40457 -0.20544,-2.2747 1.35316,-4.26219 7.93666,-18.06009 9.04737,-18.96178 0.41463,-0.3366 1.40841,-0.32538 4.02452,0.0454 3.04536,0.43164 3.55603,0.58703 4.13948,1.25927 0.57479,0.66231 0.58861,1.00551 0.10121,2.51681 -1.03762,3.21743 -10.10458,16.68898 -12.10742,17.98903 -0.73528,0.47725 -2.81101,0.23894 -4.99972,-0.57405 z M 410.58436,542.76146 c -0.0466,-0.24132 -0.23163,-2.4188 -0.41124,-4.83885 -0.40859,-5.50458 -0.18333,-11.54919 0.95863,-25.7242 0.85899,-10.66253 1.01479,-11.74373 3.57728,-24.82537 1.47365,-7.52249 3.28607,-15.84145 4.02782,-18.48654 1.29846,-4.63037 6.65802,-18.26337 10.3739,-26.3879 1.80737,-3.9517 2.48099,-6.42478 2.05653,-7.55018 -0.14235,-0.3774 -1.60387,-2.08181 -3.24784,-3.78755 -5.28182,-5.48027 -7.82481,-9.30373 -9.51277,-14.30271 -1.41604,-4.19368 -1.51142,-7.11877 -0.41844,-12.83248 1.06531,-5.56935 2.15103,-7.7772 5.76796,-11.73019 4.20644,-4.59727 9.20791,-7.62157 15.22785,-9.20802 5.03489,-1.32686 8.17886,-1.4925 13.44868,-0.70857 5.02228,0.74712 8.22131,1.70583 13.46329,4.03475 2.82922,1.25697 3.29241,1.38104 4.28137,1.14666 2.01086,-0.47657 3.782,-2.02748 6.06477,-5.31074 4.25338,-6.11757 5.9024,-7.20522 10.24109,-6.75476 1.36019,0.14121 7.90225,1.53595 14.53794,3.09928 6.63569,1.5634 15.24538,3.55656 19.13266,4.42928 7.57611,1.70087 8.23673,1.96366 10.87674,4.32673 1.11456,0.99763 2.54037,1.82073 4.49719,2.59615 1.57586,0.62446 3.07048,1.30678 3.32137,1.51627 0.32116,0.26817 0.30885,1.43954 -0.0416,3.95847 l -0.49777,3.5776 -4.58725,2.43604 c -2.523,1.33981 -5.11143,2.96996 -5.75206,3.62255 l -1.16479,1.18651 -1.0491,7.06601 c -1.16447,7.84303 -1.13914,10.17162 0.15933,14.64709 0.53703,1.85096 0.8104,4.09748 0.8198,6.73691 0.025,7.0358 0.72397,9.45507 5.49153,19.00822 1.89191,3.79099 3.38629,7.1705 3.32084,7.51005 -0.0654,0.33954 -0.39119,0.65351 -0.7239,0.69772 -0.33272,0.0442 -5.99879,-1.13852 -12.59132,-2.62811 -6.59251,-1.48967 -21.9338,-4.82602 -34.09178,-7.41413 -12.15795,-2.58811 -22.19393,-4.81883 -22.30217,-4.95714 -0.33489,-0.42803 1.45216,-2.30195 5.20168,-5.45448 6.51434,-5.47719 10.12245,-10.01945 13.08015,-16.46667 0.92554,-2.01747 2.08404,-4.4232 2.57447,-5.34606 0.77538,-1.45906 0.83963,-1.78446 0.49257,-2.49476 -0.49696,-1.01666 -2.50052,-1.89124 -3.07786,-1.34353 -0.22095,0.20962 -0.62752,1.02193 -0.90348,1.80517 -1.94422,5.51815 -3.52157,8.26788 -6.61163,11.52582 -4.91544,5.18253 -11.03942,8.67563 -17.7289,10.11254 -5.17793,1.11223 -5.40919,1.09918 -17.35846,-0.97994 -2.13041,-0.37071 -4.20195,0.66554 -5.67759,2.84006 -5.34968,7.88341 -12.92299,28.40418 -16.81898,45.57299 -2.02124,8.90719 -4.31303,25.87234 -5.1168,37.87748 -0.32558,4.8628 -0.73181,10.10714 -0.90275,11.65408 -0.17092,1.54696 -0.41107,3.81981 -0.53367,5.0508 -0.20981,2.10668 -0.2689,2.22931 -1.00567,2.0873 -0.43053,-0.083 -0.82086,-0.34831 -0.86743,-0.58962 z m 43.66099,-105.71675 c 10.08383,-0.78732 19.32396,-6.21407 23.1895,-13.6193 1.1602,-2.2226 2.16199,-6.80011 1.73561,-7.93062 -0.16867,-0.44719 -1.01296,-1.25401 -1.8762,-1.79292 -1.40597,-0.87776 -2.45095,-1.15508 -10.02911,-2.66165 -9.37602,-1.86401 -10.74157,-1.92387 -12.39733,-0.5435 -2.42966,2.02554 -13.69671,18.83796 -14.11154,21.05689 -0.27161,1.45145 0.28106,2.68765 1.62663,3.63982 1.65638,1.1721 7.96045,2.15593 11.86244,1.85128 z m -19.8795,-7.09442 c 1.7086,-0.5507 3.27295,-2.37665 8.07781,-9.42858 7.77302,-11.40819 13.15361,-17.27863 19.97073,-21.78889 1.63166,-1.07953 3.53279,-2.65287 4.22474,-3.49633 1.08427,-1.32166 1.23002,-1.69526 1.05493,-2.70399 -0.27207,-1.56747 -1.22004,-2.62089 -3.53083,-3.92361 -4.94707,-2.78892 -11.1357,-4.3859 -16.34003,-4.21658 -6.14558,0.19997 -11.07675,1.63871 -16.22589,4.73418 -3.84117,2.30915 -6.30363,4.73365 -8.41359,8.28391 -1.60963,2.70839 -1.89169,3.47451 -2.56034,6.95421 -1.10179,5.73216 -0.33451,10.75312 2.47333,16.19118 1.67552,3.24506 6.01713,8.21918 8.24975,9.45163 0.65091,0.35933 1.79442,0.33772 3.01939,-0.0571 z m 15.02303,110.92907 -4.43469,-1.04026 -0.58598,-1.64218 c -0.32231,-0.9032 -0.57006,-2.54774 -0.55057,-3.65454 0.0562,-3.19087 1.47388,-12.36555 2.45154,-15.8652 0.87649,-3.13737 0.91535,-3.20146 2.04943,-3.37955 0.871,-0.13678 4.90551,0.59867 16.36408,2.98302 8.36445,1.74051 15.47162,3.28539 15.79375,3.43306 1.36536,0.62596 1.24925,1.98663 -1.08486,12.71254 -1.22895,5.64741 -2.39366,10.56173 -2.58825,10.9207 -0.25071,0.46251 -0.76439,0.63322 -1.76284,0.58586 -1.63476,-0.0775 -19.14292,-3.52671 -25.65161,-5.05345 z m 38.9386,7.60135 c -0.11418,-0.14593 0.77687,-5.37287 1.98008,-11.61542 2.10394,-10.91565 2.22116,-11.36952 3.06165,-11.85754 0.84515,-0.49069 1.37288,-0.41127 15.99782,2.40761 8.31812,1.60327 15.37885,3.0587 15.69055,3.2342 0.31168,0.17554 0.74545,0.81577 0.9639,1.42277 0.33775,0.93844 0.19038,1.97875 -0.98466,6.9506 -1.93689,8.19554 -3.46555,12.18032 -5.65441,14.7394 l -0.6824,0.79782 -15.08248,-2.90707 c -8.29535,-1.59889 -15.17587,-3.02651 -15.29005,-3.17237 z m 40.94122,6.51126 c 0.0146,-0.88009 0.60946,-3.46475 1.32185,-5.74375 0.71246,-2.27899 1.84653,-6.40659 2.52017,-9.17245 1.71598,-7.04568 1.94258,-7.20259 8.55961,-5.92719 1.95511,0.37683 3.82911,0.84731 4.16443,1.04552 0.52489,0.31025 0.51988,0.82632 -0.0361,3.71069 -0.84238,4.37044 -5.73165,17.60512 -6.89139,18.65416 -0.80725,0.73021 -0.86715,0.72891 -5.24082,-0.11409 l -4.42426,-0.85276 0.0265,-1.60013 z M 423.93317,535.69775 c -0.69395,-0.6002 -1.17456,-2.58459 -1.14696,-4.73573 0.0667,-5.19778 1.02611,-17.29148 1.46848,-18.51034 0.26702,-0.73573 0.76242,-1.4665 1.10086,-1.62394 0.91902,-0.42748 8.2628,1.03678 9.99559,1.99299 2.45899,1.35698 2.47324,1.62915 0.71034,13.56109 -1.24773,8.44507 -1.67937,10.67828 -2.12553,10.99597 -0.44162,0.31462 -1.51639,0.2132 -5.09661,-0.48094 -2.4953,-0.48402 -4.70319,-1.02343 -4.90635,-1.19915 z m 113.17234,-10.01057 c -0.14622,-0.38771 0.0109,-2.14432 0.34907,-3.90358 0.33832,-1.75924 0.81724,-5.59288 1.0645,-8.51914 0.4718,-5.58394 1.03026,-9.11088 1.6171,-10.21294 0.2948,-0.55366 0.73326,-0.61932 2.79188,-0.41813 3.76492,0.36796 7.17285,1.46146 7.65985,2.45772 0.58471,1.19618 0.5581,3.72557 -0.11105,10.56414 -0.71741,7.33164 -1.38093,10.97758 -2.18057,11.9818 l -0.59421,0.74623 -5.16535,-0.99559 c -4.72386,-0.9105 -5.18807,-1.05588 -5.43122,-1.70051 z m -41.85558,-8.34961 -0.70641,-0.73404 2.50529,-11.33872 2.50528,-11.33873 5.33615,0.73228 c 2.93489,0.40277 9.66474,1.67992 14.9552,2.83814 l 9.61906,2.10582 0.82602,1.05571 c 0.94075,1.20234 0.92437,1.92876 -0.25509,11.30921 -0.81055,6.44663 -1.63862,11.05081 -2.10996,11.73172 -0.29057,0.41978 -2.06598,0.13634 -16.14779,-2.57785 -14.57575,-2.8094 -15.87694,-3.10725 -16.52775,-3.78352 z m -41.71843,-8.13144 c -2.65201,-0.6371 -4.85989,-1.18744 -4.90639,-1.22296 -0.0466,-0.0356 0.35119,-2.29972 0.88376,-5.0316 1.30346,-6.68553 4.02628,-16.04009 4.98207,-17.11612 1.47113,-1.65619 1.45376,-1.65653 10.63697,0.20006 14.7678,2.98563 21.6539,4.62026 22.15355,5.25884 0.36885,0.47141 0.079,2.47063 -1.68541,11.62461 -2.04711,10.62085 -2.16515,11.07524 -3.00481,11.56274 -0.84024,0.48784 -1.32507,0.41815 -12.55596,-1.80487 -6.42508,-1.2717 -13.85179,-2.83359 -16.50379,-3.47071 z m -26.23436,-5.67805 c -1.81216,-0.82936 -1.61754,-3.9034 0.67429,-10.64978 3.55841,-10.47485 3.87159,-11.24566 4.95156,-12.18682 l 1.05651,-0.92073 5.12438,0.98464 c 6.12292,1.1771 6.27122,1.30335 5.60514,4.75909 -0.61967,3.215 -4.96919,18.00716 -5.67606,19.30353 l -0.6253,1.14677 -5.12374,-1.02129 c -2.81806,-0.5617 -5.51205,-1.19896 -5.98664,-1.41617 z m 114.25165,-8.12071 c -1.46826,-0.68817 -1.81069,-1.92643 -2.28433,-8.26088 -0.21561,-2.88357 -0.75857,-7.8814 -1.20656,-11.10628 -0.91194,-6.5646 -0.94949,-6.45974 2.10534,-5.87967 1.70817,0.32415 1.92272,0.48121 3.78734,2.76839 4.21927,5.17549 7.25816,14.89136 6.54371,20.92141 l -0.34147,2.88196 -1.07566,0.13987 c -1.28801,0.16749 -6.00318,-0.74995 -7.52837,-1.46481 z m -34.28107,-7.27226 c -2.23928,-0.56364 -4.59246,-1.14461 -5.22932,-1.29101 l -1.15791,-0.26616 0.34091,-4.07412 c 0.4097,-4.89647 2.99594,-19.45255 3.50823,-19.74527 0.52906,-0.30231 22.33511,4.13816 23.42692,4.77055 1.15485,0.6689 1.49338,1.76829 2.31559,7.52017 0.96757,6.76865 1.32207,14.03497 0.78486,16.08736 l -0.44932,1.71655 -9.73429,-1.8466 c -5.35385,-1.01564 -11.56642,-2.30779 -13.80568,-2.87145 z m -37.82532,-8.00922 c -11.57673,-2.53449 -11.32024,-2.4411 -11.51194,-4.19197 -0.15906,-1.4527 8.99538,-18.32748 10.85512,-20.00971 0.3933,-0.35577 1.27072,-0.63685 1.94986,-0.62463 1.60348,0.0288 17.42034,3.0821 20.67038,3.99022 3.73064,1.04237 3.73787,1.08734 1.64484,10.2303 -1.81593,7.93264 -3.47026,13.93934 -3.97091,14.41821 -0.35739,0.34185 -3.0495,-0.18079 -19.63736,-3.81239 z m -32.16885,-7.24786 c -0.88291,-1.80625 2.08685,-7.24758 7.05946,-12.93467 2.88844,-3.30346 5.63913,-5.33946 9.21115,-6.81785 2.65441,-1.09861 2.96425,-1.14573 4.70923,-0.71625 l 1.86787,0.45973 -0.34436,1.62335 c -0.21839,1.02949 -1.08796,2.71634 -2.37704,4.61103 -1.11799,1.64321 -3.12448,5.13439 -4.45886,7.75818 -2.74862,5.40457 -4.36892,7.9209 -5.37191,8.34258 -0.46497,0.19548 -2.18338,0.002 -5.28608,-0.59643 -4.36115,-0.84059 -4.61833,-0.92937 -5.00949,-1.72967 z"
       style="fill:#196333;fill-opacity:1"
       inkscape:export-filename="/home/ben/Desktop/nade.png"
       inkscape:export-xdpi="90"
       inkscape:export-ydpi="90" />
    <flowRoot
       xml:space="preserve"
       id="flowRoot3884"
       style="font-size:40px;font-style:normal;font-weight:normal;line-height:125%;letter-spacing:0px;word-spacing:0px;fill:#000000;fill-opacity:1;stroke:none;font-family:Sans"
       transform="matrix(0.98192676,0.1892613,-0.1892613,0.98192676,-161.5951,-59.208145)"><flowRegion
         id="flowRegion3886"><rect
           id="rect3888"
           width="242.85715"
           height="225.71428"
           x="368.57144"
           y="289.50504" /></flowRegion><flowPara
         id="flowPara3890"
         style="font-size:24px;text-align:start;text-anchor:start;font-family:Arial Black;-inkscape-font-specification:Arial Black">LIBERTAS &amp;</flowPara><flowPara
         id="flowPara3892"
         style="font-size:24px;text-align:start;text-anchor:start;font-family:Arial Black;-inkscape-font-specification:Arial Black">NOTABILIA</flowPara></flowRoot>    <flowRoot
       xml:space="preserve"
       id="flowRoot3894"
       style="font-size:40px;font-style:normal;font-weight:normal;line-height:125%;letter-spacing:0px;word-spacing:0px;fill:#000000;fill-opacity:1;stroke:#ffffff;font-family:Sans;stroke-opacity:1;stroke-width:0.4;stroke-miterlimit:4;stroke-dasharray:none"
       transform="matrix(0.98192676,0.1892613,-0.1892613,0.98192676,94.482037,-59.316033)"><flowRegion
         id="flowRegion3896"><rect
           id="rect3898"
           width="497.14285"
           height="211.42854"
           x="111.42857"
           y="449.50504"
           style="stroke:#ffffff;stroke-opacity:1;stroke-width:0.4;stroke-miterlimit:4;stroke-dasharray:none" /></flowRegion><flowPara
         id="flowPara3900">4310 4931 3940 3042</flowPara></flowRoot>  </g>
</svg>
